<svg width="234" height="200" viewBox="0 0 234 200" fill="none" xmlns="http://www.w3.org/2000/svg">
<path d="M1 104.314C1 104.314 15.3522 124.846 28.8946 132.184C51.5884 144.48 95.0011 132.184 95.0011 132.184L74.3667 190.979L124.806 198.232V150.128V117.676C124.806 117.676 200.008 162.569 225.685 132.184C249.081 104.5 208.872 40.9378 208.872 40.9378H144.294V11.9223L104.554 1.23242L95.0011 40.9378H1V104.314Z" fill="#EAE5DF" stroke="black" stroke-width="2"/>
<path d="M29 70.341L58.8052 64.2324L74.4721 70.341V83.7034H37.4066L29 70.341Z" fill="#EAE5DF"/>
<path d="M124.912 83.7034L144.4 70.341H178.026L191.018 83.7034L178.026 103.938H144.4L124.912 83.7034Z" fill="#EAE5DF"/>
<path d="M29 70.341L58.8052 64.2324L74.4721 70.341V83.7034H37.4066L29 70.341Z" stroke="black" stroke-width="2"/>
<path d="M124.912 83.7034L144.4 70.341H178.026L191.018 83.7034L178.026 103.938H144.4L124.912 83.7034Z" stroke="black" stroke-width="2"/>
</svg>
