<svg width="157" height="188" viewBox="0 0 157 188" fill="none" xmlns="http://www.w3.org/2000/svg">
<path d="M48.8067 10.3241L1.26758 183.672C1.26758 183.672 28.4527 187.183 42.1111 186.993C55.7694 186.802 76.9284 183.672 76.9284 183.672C76.9284 183.672 83.7113 172.395 90.3197 167.732C96.9282 163.068 109.737 160.426 109.737 160.426L101.033 179.687C101.033 179.687 106.216 182.409 109.737 183.672C113.258 184.934 144.144 187.058 147.902 183.672C151.66 180.286 155.268 173.045 155.268 173.045L141.207 97.9941C141.207 97.9941 134.909 72.4544 126.476 58.1441C118.044 43.8338 90.3197 19.6224 90.3197 19.6224C90.3197 19.6224 72.0934 0.197862 64.8763 1.02573C57.6591 1.8536 48.8067 10.3241 48.8067 10.3241Z" fill="#2C3872" stroke="black" stroke-width="2"/>
<path d="M71.5465 35C71.5465 35 66.3512 85.7138 76.903 104.099C87.4547 122.485 105.479 148.732 118.416 139.3C131.353 129.869 124.882 114.613 123.103 98.7858C121.324 82.9581 115.404 69.4779 106.364 55.6151C97.3232 41.7524 71.5465 35 71.5465 35Z" fill="#2C3872" stroke="black" stroke-width="2"/>
</svg>
