<svg width="458" height="600" viewBox="0 0 458 600" fill="none" xmlns="http://www.w3.org/2000/svg">
<path d="M3.81756 192.599L8.72635 153.298L9.23485 85.8655L12.7481 27.6511L20.0913 5.22729L34.7651 0.229402L70.8578 0.501571L70.6224 -0.000218858L82.0185 0.0857175L82.1352 0.415708L82.1954 0.587066L397.782 2.96685L425.414 8.28376L434.475 29.8088L437.123 86.5374L443.711 164.242L452.129 203.132L456.487 236.883L443.056 251.087L440.605 251.39L437.284 303.687L445.565 360.144L445.489 361.986L454.727 368.771L457.643 389.291L448.691 422.533L444.76 468.623L438.566 543.393L436.844 551.399L435.231 575.9L430.273 581.967L429.548 585.346L425.026 588.388L420.24 594.244L416.363 594.215L408.454 599.536L368.018 599.231L27.6193 599.738L16.4632 585.818L11.5434 491.491L5.98935 413.557L1.11379 381.236L12.5558 357.237L19.0622 355.902L15.908 355.879L14.2604 247.232L3.42463 244.706L-0.000392406 223.224L3.81756 192.599ZM445.394 384.587L444.624 383.236L444.436 387.85L445.394 384.587ZM441.229 237.011L441.627 236.771L441.762 218.892L440.017 210.944L441.229 237.011ZM430.506 387.829L431.606 377.469L430.732 368.59L426.063 368.555L414.405 384.995L430.506 387.829ZM427.638 428.169L427.746 413.84L429.536 396.97L409.179 392.364L399.677 405.764L397.32 403.068L397.067 420.533L427.638 428.169ZM400.785 382.596L410.197 368.435L426.164 355.232L429.421 355.256L428.512 346.011L398.185 343.309L397.625 381.98L400.785 382.596ZM426.988 475.094L427.309 471.768L427.566 437.781L396.944 428.999L396.774 440.792L396.612 462.162L426.988 475.094ZM411.983 226.33L428.242 244.845L428.743 244.543L425.071 214.255L408.891 216.847L411.983 226.33ZM427.721 339.815L422.432 303.575L422.731 300.984L398.794 301.337L398.272 337.391L427.721 339.815ZM427.992 255.49L428.29 252.911L423.565 253.495L403.172 239.546L399.795 232.299L399.431 257.419L427.992 255.49ZM399.751 503.066L399.777 503.082L422.942 517.061L425.918 486.193L396.532 472.775L396.318 501.274L399.751 503.066ZM423.547 293.931L427.32 261.298L399.35 263.012L398.896 294.34L423.547 293.931ZM376.81 579.484L410.11 579.3L420.445 567.074L420.642 540.929L421.78 529.123L396.23 512.825L396.081 532.644L396.052 532.725L390.819 547.041L390.737 547.266L390.51 547.344L378.693 551.356L378.614 551.383L357.183 551.221L376.81 579.484ZM403.469 200.211L406.358 209.077L423.993 205.371L423.221 198.996L422.731 170.119L400.622 175.275L400.225 202.568L403.469 200.211ZM422.574 160.743L421.924 122.395L401.267 130.707L400.746 166.634L422.574 160.743ZM421.734 111.181L421.096 73.3751L420.994 72.7698L406.622 83.0397L401.903 86.7855L401.422 119.964L421.734 111.181ZM384.021 40.7968L384.115 40.8385L399.438 47.6193L399.704 47.7375L399.732 48.0278L402.113 72.1421L402.116 72.1704L402.116 72.1988L402.08 74.5853L419.089 61.387L412.765 23.5833L372.301 19.1843L357.97 40.6003L384.021 40.7968ZM392.508 168.858L392.861 147.489L392.963 134.048L367.481 144.302L367.038 175.732L392.508 168.858ZM393.041 123.588L393.267 93.6414L383.749 101.197L383.735 101.207L383.722 101.217L367.935 112.107L367.618 134.582L393.041 123.588ZM353.152 75.9224L353.25 75.9691L365.827 81.86L366.086 81.9811L366.113 82.2664L367.863 101.14L393.36 81.3527L393.502 62.4773L390.1 53.0207L376.602 48.4061L352.91 48.2274L334.796 75.784L353.152 75.9224ZM390.525 212.404L389.556 210.324L391.849 208.656L392.37 177.2L366.933 183.133L366.449 217.463L390.525 212.404ZM391.036 257.987L391.667 219.755L366.353 224.282L365.853 259.688L391.036 257.987ZM390.432 294.481L390.944 263.528L365.777 265.071L365.357 294.898L390.432 294.481ZM389.897 336.701L390.033 318.71L390.317 301.462L365.259 301.833L364.797 334.636L389.897 336.701ZM345.716 534.708L345.726 534.72L345.734 534.733L351.637 543.234L377.969 542.69L386.892 538.803L388.433 530.916L388.606 507.961L363.028 491.645L362.937 503.682L362.91 503.76L358.61 516.21L358.531 516.436L358.306 516.518L348.604 520.011L348.52 520.042L334.098 519.933L345.716 534.708ZM367.212 486.081L388.686 497.29L388.897 469.29L363.285 457.597L363.09 483.422L367.212 486.081ZM388.976 458.911L389.218 426.782L363.601 419.435L363.539 423.805L363.357 448.006L388.976 458.911ZM389.28 418.587L389.511 387.911L364.126 382.166L363.702 412.199L389.28 418.587ZM389.568 380.411L389.853 342.565L364.717 340.325L364.22 375.474L389.568 380.411ZM328.333 572.804L328.38 572.888L328.392 572.985L329.258 579.747L365.54 579.547L347.893 551.151L334.47 551.05L316.232 551.235L328.333 572.804ZM350.441 40.5436L356.259 32.4153L364.958 18.7803L326.047 18.1451L316.92 40.2908L350.441 40.5436ZM360.114 177.601L360.256 168.759L360.419 147.143L335.315 157.244L335.314 157.243L315.275 165.761L315.179 165.802L312.162 165.779L311.832 190.633L360.114 177.601ZM312.35 151.478L312.352 151.501L312.352 151.524L312.258 158.522L360.49 137.664L360.645 117.135L346.885 126.627L346.833 126.663L346.775 126.685L319.514 136.758L319.401 136.8L319.281 136.785L311.095 135.807L312.35 151.478ZM315.506 128.86L353.19 112.526L360.724 106.68L360.813 94.843L358.036 86.6588L347.015 82.6722L330.416 82.5471L314.834 122.58L315.506 128.86ZM342.156 222.567L359.451 218.934L359.999 184.751L311.762 196.002L311.337 228.013L342.156 222.567ZM356.729 260.304L358.791 260.165L359.346 225.535L311.255 234.133L310.886 261.967L356.729 260.304ZM358.232 295.092L358.706 265.504L356.689 265.627L310.825 266.536L310.423 296.883L358.232 295.092ZM356.501 333.952L357.747 334.054L357.871 317.647L358.122 301.938L356.776 301.957L310.328 304.057L309.954 332.22L356.501 333.952ZM321.286 503.639L328.479 512.788L347.949 512.354L355.218 508.996L356.48 502.172L356.59 487.539L340.276 477.134L307.08 463.898L306.654 469.228L321.286 503.639ZM310.119 456.805L310.236 456.787L310.35 456.825L334.373 464.917L334.433 464.936L334.485 464.969L356.652 479.27L356.838 454.653L315.24 435.661L308.833 435.613L308.71 451.831L308.69 451.901L307.075 457.246L310.119 456.805ZM318.58 428.481L318.675 428.524L338.584 437.462L338.585 437.462L356.909 445.261L357.117 417.575L309.073 403.795L308.887 428.408L318.58 428.481ZM357.17 410.567L357.396 380.642L343.464 377.489L309.44 370.935L309.162 391.913L309.112 398.561L357.17 410.567ZM357.445 374.155L357.705 339.7L356.458 339.589L309.89 337.023L309.521 364.821L357.445 374.155ZM306.687 534.213L306.686 534.214L311.733 543.213L341.679 543.439L342.685 543.418L324.668 519.862L312.263 519.768L298.899 519.918L306.687 534.213ZM326.265 75.7197L328.484 71.2333L328.502 71.1974L328.526 71.1643L344.985 48.1677L313.771 47.9323L309.799 57.5725L302.64 75.5415L326.265 75.7197ZM275.137 580.047L320.618 579.795L319.266 571.626L307.123 551.327L268.465 551.718L275.137 580.047ZM302.497 130.885L302.606 130.943L305.44 132.463L304.475 123.443L304.52 123.329L311.966 104.642L311.973 104.623L311.982 104.605L322.917 82.4905L299.942 82.3173L286.399 116.316L283.821 123.894L283.769 130.744L302.497 130.885ZM284.565 493.605L295.044 512.842L318.179 513.017L319.496 512.988L304.479 484.868L304.469 484.849L304.46 484.831L297.515 468.857L297.466 468.742L297.828 464.216L277.685 464.064L277.631 471.129L284.565 493.605ZM308.065 40.224L316.858 17.9948L287.204 17.5104L282.481 17.4748L275.03 39.9749L308.065 40.224ZM305.759 228.998L306.43 228.88L306.853 200.629L306.88 196.962L282.135 197.12L281.587 217.071L281.586 217.071L281.31 228.814L305.759 228.998ZM306.919 191.776L307.116 165.741L283.002 165.559L282.286 191.591L306.919 191.776ZM307.169 158.62L307.27 145.204L305.479 139.138L298.381 136.201L283.729 136.09L283.698 140.22L283.197 158.439L307.169 158.62ZM301.507 262.307L305.933 262.147L306.338 235.012L302.772 235.65L302.726 235.658L281.153 235.495L280.528 262.149L301.507 262.307ZM305.412 297.045L305.866 266.634L303.578 266.679L280.425 266.504L279.714 296.852L305.412 297.045ZM304.693 332.024L305.035 332.037L305.184 312.297L305.307 304.088L279.549 303.893L278.894 331.83L304.693 332.024ZM279.24 458.729L298.67 458.211L303.32 455.745L304.141 450.684L304.255 435.579L277.901 435.38L277.725 458.717L279.24 458.729ZM304.309 428.374L304.5 402.985L278.147 402.786L277.955 428.175L304.309 428.374ZM304.539 397.86L304.745 370.492L278.392 370.293L278.188 397.294L304.539 397.86ZM304.311 363.805L304.356 363.815L304.795 363.9L305 336.753L302.605 336.621L278.785 336.441L278.581 345.159L278.442 363.61L304.311 363.805ZM266.38 542.871L302.228 543.142L297.144 534.643L297.134 534.626L297.126 534.609L289.9 520.019L261.073 520.34L266.38 542.871ZM294.121 75.4773L305.042 47.8665L272.498 47.6211L263.35 75.2452L294.121 75.4773ZM276.137 130.686L276.213 120.587L276.248 120.5L285.609 96.9977L285.609 96.9987L291.441 82.2532L261.128 82.0246L250.342 117.993L250.248 130.491L276.137 130.686ZM252.699 484.787L259.244 512.572L286.313 512.777L278.53 497.059L278.519 497.038L278.51 497.015L270.506 475.944L270.472 475.857L270.561 464.113L252.378 464.367L252.699 484.787ZM250.452 158.192L275.928 158.384L276.097 136.033L250.225 135.837L250.452 158.192ZM250.789 191.353L275.178 191.537L275.802 165.505L250.524 165.314L250.789 191.353ZM251.167 228.586L274.286 228.761L275.043 197.165L250.85 197.319L251.167 228.586ZM251.506 261.93L273.488 262.096L274.126 235.442L251.235 235.27L251.506 261.93ZM251.858 296.641L272.657 296.798L273.384 266.451L251.55 266.287L251.858 296.641ZM252.214 331.629L271.819 331.776L272.488 303.84L265.911 303.791L251.929 303.535L252.214 331.629ZM252.537 363.415L271.319 363.557L271.439 347.651L271.709 336.388L252.261 336.241L252.537 363.415ZM252.008 440.778L252.286 458.525L270.602 458.663L270.778 435.326L252.05 435.185L252.008 440.778ZM252.104 427.98L270.832 428.121L271.024 402.732L252.296 402.591L252.104 427.98ZM252.34 396.74L271.066 397.142L271.269 370.239L252.541 370.098L252.34 396.74ZM267.403 39.9174L272.612 22.1944L272.648 17.4006L235.403 17.1198L233.126 39.6589L267.403 39.9174ZM235.352 575.576L235.366 575.651L235.358 575.727L234.853 580.268L267.711 580.087L261.218 551.792L230.779 552.099L235.352 575.576ZM257.175 75.1987L264.216 50.7628L264.217 50.7599L265.155 47.5657L232.352 47.3183L229.94 71.208L229.939 71.2158L229.937 71.2227L229.443 74.9896L257.175 75.1987ZM227.955 537.597L229.022 543.078L250.471 542.751L259.159 542.817L254.019 520.419L225.38 520.738L227.955 537.597ZM221.605 496.016L221.607 496.027L224.163 512.769L243.301 512.452L252.206 512.519L251.527 509.557L251.524 509.546L246.582 485.423L246.576 485.392L246.573 485.36L245.645 472.541L245.643 472.521L245.704 464.459L217.749 464.847L217.68 473.987L221.605 496.016ZM244.636 130.448L244.731 117.81L244.752 117.742L249.484 101.892L255.221 81.98L228.552 81.7789L223.961 116.775L223.859 130.292L244.636 130.448ZM230.254 458.359L230.267 458.358L230.267 458.359L245.749 458.476L245.752 458.16L245.66 435.137L217.975 434.928L217.796 458.609L230.254 458.359ZM245.631 427.931L245.53 402.54L218.221 402.334L218.029 427.723L245.631 427.931ZM245.507 396.593L245.401 370.044L218.466 369.841L218.268 396.008L245.507 396.593ZM245.375 363.361L245.267 336.189L218.911 335.99L218.631 347.929L218.516 363.159L245.375 363.361ZM245.248 331.576L245.136 303.41L219.689 302.944L219.019 331.378L245.248 331.576ZM245.11 296.591L244.989 266.237L220.557 266.053L219.843 296.4L245.11 296.591ZM244.972 261.881L244.865 235.222L221.286 235.044L220.659 261.697L244.972 261.881ZM244.84 228.539L244.715 197.358L222.26 197.5L221.647 219.785L221.646 219.785L221.444 228.362L244.84 228.539ZM244.692 191.307L244.588 165.269L223.152 165.108L222.435 191.139L244.692 191.307ZM244.56 158.148L244.514 146.583L244.596 135.795L223.819 135.638L223.764 142.9L223.348 157.988L244.56 158.148ZM188.651 580.523L223.749 580.33L226.671 573.503L222.879 552.179L188.474 552.527L188.651 580.523ZM188.418 543.695L221.282 543.195L220.307 537.715L217.304 520.829L188.277 521.152L188.418 543.695ZM188.191 39.3201L222.273 39.5771L223.669 17.0313L186.889 16.7539L186.837 23.6365L188.191 39.3201ZM190.381 74.695L220.082 74.919L221.798 47.2387L188.799 46.9899L190.381 74.695ZM192.711 115.362L192.712 115.378L192.601 130.056L216.197 130.234L216.249 123.331L216.251 123.311L219.052 91.5582L219.662 81.7119L190.77 81.494L192.711 115.362ZM188.227 513.364L215.895 512.906L213.917 501.78L213.915 501.772L213.914 501.765L210.501 478.669L210.496 478.631L210.599 464.946L188.053 465.259L187.984 474.416L188.227 513.364ZM215.988 157.932L216.157 135.581L192.561 135.403L192.392 157.755L215.988 157.932ZM215.288 191.085L215.914 165.053L192.339 164.875L192.142 190.911L215.288 191.085ZM214.394 228.309L215.133 197.545L192.091 197.691L191.862 228.083L191.861 228.139L214.394 228.309ZM213.594 261.644L214.233 234.991L191.718 234.821L191.152 261.475L213.594 261.644ZM197.229 296.229L212.761 296.347L213.49 266L191.06 265.831L190.419 296.018L197.229 296.229ZM211.921 331.325L212.606 302.814L190.283 302.405L189.672 331.157L211.921 331.325ZM211.367 363.105L211.462 350.422L211.81 335.936L189.574 335.769L188.997 362.936L211.367 363.105ZM210.646 458.752L210.826 434.874L188.283 434.704L188.099 459.204L210.646 458.752ZM210.88 427.669L211.071 402.28L188.529 402.11L188.338 427.499L210.88 427.669ZM211.12 395.855L211.316 369.787L188.855 369.618L188.729 375.577L188.58 395.37L211.12 395.855ZM158.941 105.907L163.434 121.84L163.453 121.908L163.393 129.836L186.991 130.014L187.088 125.601L185.355 87.7141L184.881 81.4496L152.23 81.2034L158.941 105.907ZM186.386 157.709L186.874 135.36L163.353 135.182L163.236 150.706L163.105 157.534L186.386 157.709ZM185.661 190.862L186.23 164.829L162.969 164.654L162.474 190.687L185.661 190.862ZM184.849 228.086L185.512 197.733L162.337 197.881L161.765 227.912L184.849 228.086ZM184.122 261.422L184.704 234.768L161.637 234.594L161.13 261.248L184.122 261.422ZM183.785 295.811L184.002 266.938L184.027 265.778L161.047 265.604L160.486 295.086L183.785 295.811ZM182.498 395.24L183.222 370.396L183.228 369.575L159.07 369.393L158.588 394.727L182.498 395.24ZM183.279 362.893L183.484 335.723L159.715 335.543L159.197 362.711L183.279 362.893ZM183.518 331.11L183.736 302.284L160.357 301.857L159.802 330.932L183.518 331.11ZM181.56 427.448L182.299 402.063L158.452 401.883L157.968 427.27L181.56 427.448ZM144.981 54.5122L144.982 54.5152L150.381 74.3934L184.366 74.6496L182.273 46.9407L142.798 46.643L144.981 54.5122ZM165.005 460.207L181.036 459.339L181.177 440.554L181.178 440.554L181.35 434.652L157.831 434.474L157.342 460.149L165.005 460.207ZM180.122 580.57L180.332 552.608L160.225 552.812L159.716 552.817L159.782 544.13L160.27 544.122L180.399 543.816L180.569 521.238L169.212 521.364L168.703 521.37L168.704 521.361L148.892 521.211L142.937 544.821L159.231 544.115L159.756 544.092L159.691 552.808L140.958 552.667L133.856 580.826L180.122 580.57ZM168.393 513.672L168.92 513.647L168.92 513.682L169.249 513.677L180.627 513.488L180.991 465.34L157.277 465.162L157.189 476.884L157.187 476.903L156.066 489.718L156.063 489.75L156.056 489.782L150.75 513.848L150.748 513.856L150.746 513.863L150.586 514.497L168.393 513.672ZM140.667 38.9617L180.67 39.2633L175.089 16.6649L137.089 16.3784L137.018 25.798L140.667 38.9617ZM157.242 157.489L157.713 138.854L157.741 135.14L131.941 134.945L130.024 137.458L128.216 151.128L128.17 157.27L157.242 157.489ZM125.236 96.3362L125.265 96.3911L125.28 96.4528L131.909 123.672L131.938 123.79L131.91 123.906L130.566 129.588L157.781 129.794L157.84 122.007L147.377 85.0693L146.147 81.1575L117.06 80.9382L125.236 96.3362ZM128.238 190.429L156.406 190.641L157.062 164.609L128.127 164.391L128.238 190.429ZM128.397 227.661L155.466 227.865L156.222 197.92L128.271 198.097L128.397 227.661ZM128.539 261.003L154.626 261.199L155.298 234.546L128.425 234.344L128.539 261.003ZM128.681 294.096L153.776 294.877L154.516 265.555L128.558 265.359L128.681 294.096ZM152.868 330.879L153.603 301.733L128.711 301.276L128.747 309.563L128.747 309.579L128.174 330.693L152.868 330.879ZM152.066 362.657L152.751 335.491L128.05 335.305L127.315 362.471L152.066 362.657ZM151.684 394.578L151.865 370.643L151.897 369.339L127.134 369.152L126.46 394.037L151.684 394.578ZM127.647 457.353L130.506 458.96L138.075 460.004L150.84 460.1L151.304 445.019L151.384 434.426L125.373 434.23L124.833 454.199L127.647 457.353ZM151.438 427.221L151.63 401.832L126.255 401.641L125.568 427.026L151.438 427.221ZM143.558 514.821L149.949 489.055L150.685 465.112L129.081 464.949L130.073 469.447L130.099 469.563L130.069 469.679L123.719 494.178L123.703 494.238L123.673 494.293L112.519 514.587L143.558 514.821ZM129.012 545.424L136.045 545.12L141.987 521.159L109.043 520.911L104.927 528.4L97.6215 545.188L129.012 545.424ZM105.033 58.2853L113.438 74.1148L144.006 74.3453L135.284 46.5863L100.032 46.3205L105.033 58.2853ZM32.3208 556.457L35.7239 580.578L96.1529 581.034L127.18 580.864L127.236 580.641L134.186 552.616L94.5198 552.317L90.304 562.005L83.4936 580.346L83.371 580.674L72.9788 580.596L73.3279 579.882L86.8344 552.259L55.9486 552.026L55.8007 551.829L45.6524 538.423L45.5499 538.287L45.7238 515.235L31.6453 526.888L32.3208 556.457ZM89.3789 20.8303L96.8181 38.631L132.869 38.9029L126.863 19.7887L126.857 19.7691L126.853 19.7496L126.067 16.2953L87.6662 16.0057L89.3789 20.8303ZM81.8874 506.619L86.2712 510.907L90.7353 513.099L102.394 514.511L105.282 514.533L111.925 500.947L122.759 466.935L117.396 466.894L84.0272 483.95L81.9764 485.619L81.8874 506.619ZM82.6402 330.778L86.1257 330.376L122.174 330.648L122.762 303.572L122.732 301.059L82.7767 298.937L82.6402 330.778ZM82.8057 292.12L90.5461 292.908L122.644 293.908L122.295 265.312L82.9222 265.015L82.8057 292.12ZM117.855 126.585L123.889 126.631L112.428 88.7394L108.723 80.8753L92.3646 80.752L86.7101 85.811L83.6638 103.853L83.6291 108.462L117.855 126.585ZM82.0093 478.156L101.6 465.853L101.616 465.842L101.634 465.834L117.108 457.768L117.219 457.711L121.152 457.74L120.04 455.955L119.964 455.831L120.121 434.943L106.414 437.684L82.1325 449.387L82.0093 478.156ZM82.4804 368.02L105.057 362.32L105.12 362.303L121.486 362.427L122.074 335.26L103.535 335.12L82.6119 337.502L82.4804 368.02ZM82.9478 259.027L97.5171 260.769L122.242 260.955L121.917 234.295L103.161 234.153L103.099 234.136L83.0773 228.769L82.9478 259.027ZM82.3292 403.487L120.794 394.335L121.34 369.109L105.209 368.987L82.4483 375.647L82.3292 403.487ZM82.1664 441.396L108.672 430.043L108.72 430.023L108.771 430.013L120.176 427.721L120.232 420.238L120.636 401.598L119.913 401.593L82.2975 410.802L82.1664 441.396ZM83.1098 221.228L103.35 227.472L121.835 227.611L121.742 219.977L121.907 198.137L119.771 198.15L119.707 198.151L119.645 198.136L83.248 188.917L83.1098 221.228ZM83.2804 181.503L117.266 190.346L121.966 190.382L122.162 164.346L120.306 164.332L120.256 164.321L105.419 161.149L105.369 161.138L105.322 161.118L83.4083 151.469L83.2804 181.503ZM83.4418 143.785L103.176 153.533L120.463 157.212L122.216 157.225L122.371 136.676L117.534 136.64L117.425 136.58L100.408 127.395L100.39 127.386L100.373 127.375L83.5686 116.482L83.5465 119.417L83.4418 143.785ZM53.741 535.906L59.1207 540.874L64.5919 543.412L78.8212 545.046L90.3189 545.133L102.188 520.859L83.5517 520.719L83.4028 520.511L75.0774 508.856L74.9827 508.725L75.1148 491.204L53.8528 508.511L53.741 535.906ZM78.0306 104.538L78.2375 77.0936L78.6016 76.9928L89.5623 73.9543L89.6298 73.9353L105.509 74.055L92.4167 46.2631L66.3452 46.0665L59.4043 51.9284L55.6977 72.7038L55.5994 85.7366L78.0306 104.538ZM47.7902 79.1912L49.0042 80.2092L49.2925 41.9788L49.6634 41.882L63.0133 38.3937L63.0769 38.3766L88.792 38.5705L78.1274 15.9338L46.475 15.6951L31.0994 17.5284L27.0702 61.5354L47.7902 79.1912ZM54.5662 334.005L78.4303 331.261L79.0368 305.745L78.9305 298.733L54.7159 297.447L54.5662 334.005ZM54.7493 289.262L78.8242 291.715L78.4184 264.847L54.8611 262.004L54.7493 289.262ZM54.3978 375.11L77.5265 369.27L78.2702 337.996L54.5392 340.697L54.3978 375.11ZM54.8874 255.671L78.3229 258.473L77.8534 227.369L57.9468 222.033L57.3906 223.656L54.9939 229.502L54.8874 255.671ZM65.4438 403.244L60.1012 408.776L76.6822 404.83L77.3392 377.143L56.1591 383.341L65.4438 403.244ZM54.0743 454.409L75.7454 444.232L76.5063 412.22L54.2243 417.674L54.0743 454.409ZM55.1395 193.742L65.2502 200.726L60.6019 214.286L77.7354 219.57L77.3538 194.283L77.4055 187.436L55.1894 181.808L55.1395 193.742ZM53.8832 500.985L74.175 483.082L74.2055 483.055L74.2399 483.034L75.1809 482.443L75.3403 461.299L75.5478 452.561L54.0393 462.926L53.8832 500.985ZM55.2205 174.2L77.4616 179.988L77.6957 148.953L74.6773 147.623L74.6695 147.62L74.6617 147.616L55.367 138.323L55.2205 174.2ZM55.4009 129.934L77.7558 140.976L77.9679 112.851L70.3351 107.903L70.3011 107.88L70.271 107.854L55.5462 94.4825L55.4009 129.934ZM28.4588 337.008L49.6487 334.571L50.3834 304.867L50.2576 297.21L27.9153 296.024L28.4588 337.008ZM27.7888 286.517L50.1189 288.791L49.6684 261.378L27.4204 258.692L27.7888 286.517ZM28.6838 353.929L36.6514 352.295L48.7412 371.254L49.4829 341.272L28.5474 343.655L28.6838 353.929ZM27.3362 252.377L49.5639 255.035L49.3194 240.186L32.8698 251.57L27.3081 250.274L27.3362 252.377ZM29.1189 416.146L47.7417 411.716L48.1356 395.75L44.6587 386.706L28.5544 391.418L29.1189 416.146ZM30.2574 466.034L46.5992 457.943L47.5536 419.306L29.2928 423.777L30.2574 466.034ZM26.8212 203.863L46.5288 209.943L48.7394 204.946L48.3313 180.071L26.5617 174.556L26.8212 203.863ZM31.4817 519.692L43.1425 510.462L45.7773 508.137L45.9611 483.765L46.3844 466.614L30.4461 474.296L31.4817 519.692ZM26.4928 166.724L48.309 172.401L48.5906 135.058L44.5369 133.106L44.5271 133.102L26.2761 123.844L26.1139 123.858L26.4928 166.724ZM26.0397 115.431L48.6544 126.6L48.9418 88.4833L36.3422 77.0413L26.3933 68.9319L25.6962 76.546L26.0397 115.431ZM27.0786 232.921L27.1314 236.925L35.7878 234.222L42.9581 218.014L26.908 213.711L27.0786 232.921ZM27.9532 381.787L41.4568 378.378L36.5509 365.618L26.5463 365.542L27.9532 381.787ZM13.9598 227.394L13.8563 220.517L13.9911 214.823L11.2727 223.309L13.9598 227.394Z" fill="#EAE5DF"/>
</svg>
