<svg width="2128" height="254" viewBox="0 0 2128 254" fill="none" xmlns="http://www.w3.org/2000/svg">
<rect x="532" width="532" height="254" fill="#FFF7E8"/>
<path d="M662.976 254H643V75H670L662.976 254ZM762.716 254H742V75H770L762.716 254ZM860.496 254H842V75H867L860.496 254ZM963.235 254H944V75H970L963.235 254ZM697 247H686V75H697V247ZM724 247H711V75H724V247ZM799 247H785V75H799V247ZM826 247H813V75H826V247ZM897 247H886V75H897V247ZM925 247H913V75H925V247Z" fill="#221E1B"/>
<path d="M542 65.5V87.5L598 123L542 65.5Z" fill="#2C3872" stroke="black" stroke-width="2"/>
<path d="M567.5 9L614.5 86.5L586 2L567.5 9Z" fill="#2C3872" stroke="black" stroke-width="2"/>
<path d="M1055 47V82.5L1012.5 123L1055 47Z" fill="#2C3872" stroke="black" stroke-width="2"/>
<path d="M1043 9L996 86.5L1012 18L1043 9Z" fill="#2C3872" stroke="black" stroke-width="2"/>
<rect x="1596" width="532" height="254" fill="#FFF7E8"/>
<path d="M1726.98 254H1707V75H1734L1726.98 254ZM1826.72 254H1806V75H1834L1826.72 254ZM1924.5 254H1906V75H1931L1924.5 254ZM2027.24 254H2008V75H2034L2027.24 254ZM1761 247H1750V75H1761V247ZM1788 247H1775V75H1788V247ZM1863 247H1849V75H1863V247ZM1890 247H1877V75H1890V247ZM1961 247H1950V75H1961V247ZM1989 247H1977V75H1989V247Z" fill="#221E1B"/>
<path d="M1606 65.5V87.5L1662 123L1606 65.5Z" fill="#2C3872" stroke="black" stroke-width="2"/>
<path d="M1631.5 9L1678.5 86.5L1650 2L1631.5 9Z" fill="#2C3872" stroke="black" stroke-width="2"/>
<path d="M2119 47V82.5L2076.5 123L2119 47Z" fill="#2C3872" stroke="black" stroke-width="2"/>
<path d="M2107 9L2060 86.5L2076 18L2107 9Z" fill="#2C3872" stroke="black" stroke-width="2"/>
<rect width="532" height="254" fill="#FFF7E8"/>
<rect x="1064" width="532" height="254" fill="#FFF7E8"/>
<path d="M124.854 254H96V75H135L124.854 254ZM225.333 254H195V75H236L225.333 254ZM322.594 254H293V75H333L322.594 254ZM425.854 254H397V75H436L425.854 254ZM158 247H142V75H158V247ZM186 247H169V75H186V247ZM261 247H241V75H261V247ZM289 247H266V75H289V247ZM358 247H342V75H358V247ZM388 247H369V75H388V247Z" fill="#221E1B"/>
</svg>
