<svg width="7547" height="69" viewBox="0 0 7547 69" fill="none" xmlns="http://www.w3.org/2000/svg">
<rect width="2515" height="69" fill="#2C3872"/>
<path d="M578.846 21C578.846 21 581.311 41.9616 573.091 43.9056C571.148 44.3649 568.004 43.9056 568.004 43.9056L567 52H571.083V48.3833L597.587 49.3306V52H601V45.5417L595.646 43.9056L589.154 21H578.846Z" fill="#82A985" stroke="black" stroke-width="0.5"/>
<path d="M427 21L429.667 49.8275L452 52L450.167 45.0647L436.417 46.2345V39.5499L441.833 38.4636V34.8706L435.167 36.7089L434.25 30.2749H449.167L452 23.1725L427 21Z" fill="#82A985" stroke="black" stroke-width="0.5"/>
<path d="M459 51V23.21L467.426 20.7234V28.912L481.47 18L487.551 23.21L469.299 34.1311L492 41.5727V51L467.426 43.8043V51H459Z" fill="#82A985" stroke="black" stroke-width="0.5"/>
<path d="M534 51.3111L534.681 22.3778L543.625 23.6571L545.278 36.254H549.75L551.208 23.6571L559.958 21L562 52L549.75 51.3111L551.208 39.9937H545.278L542.361 51.3111H534Z" fill="#82A985" stroke="black" stroke-width="0.5"/>
<path d="M505.334 21.0827L501.817 28.3258C501.817 28.3258 500.625 30.3302 500.234 31.7943C499.342 35.1365 501.289 40.6696 501.289 40.6696L503.048 48.4227L509.204 51.0751C509.204 51.0751 515.213 53.1562 518.261 51.0751C520.3 49.6833 522.131 45.6683 522.131 45.6683L524.329 38.8333L526 30.162C526 30.162 522.17 23.1569 518.261 21.0827C513.671 18.6466 505.334 21.0827 505.334 21.0827Z" fill="#82A985" stroke="black" stroke-width="0.5"/>
<path d="M414.806 20L420.038 28.072L414.806 31.406L410.927 28.7739H405.876L403.981 38.1619L412.371 42.8998L418.956 38.1619L425 41.9347L417.693 50.9718C417.693 50.9718 400.768 51.8003 396.313 44.4791C392.185 37.6942 399.11 24.4747 399.11 24.4747L414.806 20Z" fill="#82A985" stroke="black" stroke-width="0.5"/>
<path d="M743.846 22C743.846 22 746.311 42.2854 738.091 44.1667C736.148 44.6112 733.004 44.1667 733.004 44.1667L732 52H736.083V48.5L762.587 49.4167V52H766V45.75L760.646 44.1667L754.154 22H743.846Z" fill="#82A985" stroke="black" stroke-width="0.5"/>
<path d="M665 21L667.667 49.8275L690 52L688.167 45.0647L674.417 46.2345V39.5499L679.833 38.4636V34.8706L673.167 36.7089L672.25 30.2749H687.167L690 23.1725L665 21Z" fill="#82A985" stroke="black" stroke-width="0.5"/>
<path d="M698 52.2889L698.705 22.4222L707.969 23.7429L709.681 36.746H714.312L715.823 23.7429L724.885 21L727 53L714.312 52.2889L715.823 40.6063H709.681L706.66 52.2889H698Z" fill="#82A985" stroke="black" stroke-width="0.5"/>
<path d="M633.329 22.3881H622.681L634.248 39.199L620 52H629.499L640.3 39.199L642.445 52L655.008 50.1493L646.352 35.9602L657 21H650.565L640.3 30.3308L633.329 22.3881Z" fill="#82A985" stroke="black" stroke-width="0.5"/>
<path d="M130 51L131.748 21.6822L143.631 20L154 24.0853L151.437 30.9341L147.359 33.6977L141.65 36.1008H154V41.0271V51H130Z" fill="#82A985" stroke="black" stroke-width="0.5"/>
<path d="M267 50.8289V24.2378L273.158 21L274.376 37.8778L288.316 38.4289L288.925 43.1822V49.52L280.602 52L267 50.8289Z" fill="#82A985"/>
<path d="M293.865 50.8289L292.985 21.6889H297.451L303 50.8289H293.865Z" fill="#82A985"/>
<path d="M267 50.8289V24.2378L273.158 21L274.376 37.8778L288.316 38.4289L288.925 43.1822V49.52L280.602 52L267 50.8289Z" stroke="black" stroke-width="0.5"/>
<path d="M293.865 50.8289L292.985 21.6889H297.451L303 50.8289H293.865Z" stroke="black" stroke-width="0.5"/>
<path d="M161 21L163.667 49.8275L186 52L184.167 45.0647L170.417 46.2345V39.5499L175.833 38.4636V34.8706L169.167 36.7089L168.25 30.2749H183.167L186 23.1725L161 21Z" fill="#82A985" stroke="black" stroke-width="0.5"/>
<path d="M81.3766 23.2259L74.8457 54.0004L67.1797 49.9239L69.3417 35.659L58.8309 28.3087L61.7081 22.8982L71.5339 31.5365L75.0288 19.8504L81.3766 23.2259Z" fill="#82A985" stroke="black" stroke-width="0.5"/>
<path d="M87 51V23.21L95.4261 20.7234V28.912L109.47 18L115.551 23.21L97.2985 34.1311L120 41.5727V51L95.4261 43.8043V51H87Z" fill="#82A985" stroke="black" stroke-width="0.5"/>
<path d="M334.244 21.9814L347.972 50.9531L348.648 52.3809H335.562L335.337 51.6924L332.807 43.9561L320.94 52.2021L320.684 52.3809H312.04L311.962 51.4658L309.688 24.7676L309.596 23.6836H317.115L317.3 24.4482L321.048 39.9902L328.154 36.4717L326.87 22.501L326.77 21.4092H333.973L334.244 21.9814ZM327.993 19.1416L325.214 21.415L324.938 21.6416H319.742L319.46 21.3955L316.849 19.1211L314.835 17.3672H330.161L327.993 19.1416Z" fill="#82A985"/>
<path d="M334.244 21.9814L334.47 21.8744L334.47 21.8743L334.244 21.9814ZM347.972 50.9531L347.746 51.0602L347.746 51.0602L347.972 50.9531ZM348.648 52.3809V52.6309H349.044L348.874 52.2738L348.648 52.3809ZM335.562 52.3809L335.325 52.4587L335.381 52.6309H335.562V52.3809ZM335.337 51.6924L335.099 51.7701L335.099 51.7702L335.337 51.6924ZM332.807 43.9561L333.044 43.8783L332.94 43.5591L332.664 43.7508L332.807 43.9561ZM320.94 52.2021L320.798 51.9969L320.798 51.9969L320.94 52.2021ZM320.684 52.3809V52.6309H320.762L320.826 52.5861L320.684 52.3809ZM312.04 52.3809L311.791 52.4021L311.81 52.6309H312.04V52.3809ZM311.962 51.4658L311.713 51.487L311.713 51.4871L311.962 51.4658ZM309.688 24.7676L309.938 24.7464L309.938 24.7463L309.688 24.7676ZM309.596 23.6836V23.4336H309.323L309.347 23.7049L309.596 23.6836ZM317.115 23.6836L317.358 23.6249L317.312 23.4336H317.115V23.6836ZM317.3 24.4482L317.543 24.3896L317.543 24.3896L317.3 24.4482ZM321.048 39.9902L320.805 40.0488L320.878 40.3532L321.159 40.2143L321.048 39.9902ZM328.154 36.4717L328.265 36.6957L328.419 36.6196L328.403 36.4488L328.154 36.4717ZM326.87 22.501L327.119 22.4781L327.119 22.478L326.87 22.501ZM326.77 21.4092V21.1592H326.495L326.521 21.4321L326.77 21.4092ZM333.973 21.4092L334.199 21.302L334.131 21.1592H333.973V21.4092ZM327.993 19.1416L328.151 19.3351L328.152 19.3351L327.993 19.1416ZM325.214 21.415L325.056 21.2215L325.055 21.2217L325.214 21.415ZM324.938 21.6416V21.8916H325.027L325.096 21.8349L324.938 21.6416ZM319.742 21.6416L319.578 21.83L319.648 21.8916H319.742V21.6416ZM319.46 21.3955L319.624 21.2071L319.624 21.207L319.46 21.3955ZM316.849 19.1211L316.684 19.3096L316.684 19.3096L316.849 19.1211ZM314.835 17.3672V17.1172H314.167L314.671 17.5557L314.835 17.3672ZM330.161 17.3672L330.319 17.5606L330.861 17.1172H330.161V17.3672ZM334.244 21.9814L334.018 22.0885L347.746 51.0602L347.972 50.9531L348.198 50.8461L334.47 21.8744L334.244 21.9814ZM347.972 50.9531L347.746 51.0602L348.423 52.4879L348.648 52.3809L348.874 52.2738L348.198 50.846L347.972 50.9531ZM348.648 52.3809V52.1309H335.562V52.3809V52.6309H348.648V52.3809ZM335.562 52.3809L335.8 52.303L335.574 51.6145L335.337 51.6924L335.099 51.7702L335.325 52.4587L335.562 52.3809ZM335.337 51.6924L335.575 51.6147L333.044 43.8783L332.807 43.9561L332.569 44.0338L335.099 51.7701L335.337 51.6924ZM332.807 43.9561L332.664 43.7508L320.798 51.9969L320.94 52.2021L321.083 52.4074L332.949 44.1614L332.807 43.9561ZM320.94 52.2021L320.798 51.9969L320.541 52.1756L320.684 52.3809L320.826 52.5861L321.083 52.4074L320.94 52.2021ZM320.684 52.3809V52.1309H312.04V52.3809V52.6309H320.684V52.3809ZM312.04 52.3809L312.289 52.3596L312.211 51.4446L311.962 51.4658L311.713 51.4871L311.791 52.4021L312.04 52.3809ZM311.962 51.4658L312.211 51.4446L309.938 24.7464L309.688 24.7676L309.439 24.7888L311.713 51.487L311.962 51.4658ZM309.688 24.7676L309.938 24.7463L309.845 23.6623L309.596 23.6836L309.347 23.7049L309.439 24.7889L309.688 24.7676ZM309.596 23.6836V23.9336H317.115V23.6836V23.4336H309.596V23.6836ZM317.115 23.6836L316.872 23.7423L317.057 24.5069L317.3 24.4482L317.543 24.3896L317.358 23.6249L317.115 23.6836ZM317.3 24.4482L317.057 24.5069L320.805 40.0488L321.048 39.9902L321.291 39.9316L317.543 24.3896L317.3 24.4482ZM321.048 39.9902L321.159 40.2143L328.265 36.6957L328.154 36.4717L328.043 36.2476L320.937 39.7662L321.048 39.9902ZM328.154 36.4717L328.403 36.4488L327.119 22.4781L326.87 22.501L326.621 22.5239L327.905 36.4946L328.154 36.4717ZM326.87 22.501L327.119 22.478L327.018 21.3862L326.77 21.4092L326.521 21.4321L326.621 22.5239L326.87 22.501ZM326.77 21.4092V21.6592H333.973V21.4092V21.1592H326.77V21.4092ZM333.973 21.4092L333.747 21.5163L334.018 22.0886L334.244 21.9814L334.47 21.8743L334.199 21.302L333.973 21.4092ZM327.993 19.1416L327.835 18.9481L325.056 21.2215L325.214 21.415L325.372 21.6085L328.151 19.3351L327.993 19.1416ZM325.214 21.415L325.055 21.2217L324.779 21.4483L324.938 21.6416L325.096 21.8349L325.372 21.6084L325.214 21.415ZM324.938 21.6416V21.3916H319.742V21.6416V21.8916H324.938V21.6416ZM319.742 21.6416L319.906 21.4532L319.624 21.2071L319.46 21.3955L319.296 21.5839L319.578 21.83L319.742 21.6416ZM319.46 21.3955L319.624 21.207L317.013 18.9326L316.849 19.1211L316.684 19.3096L319.296 21.584L319.46 21.3955ZM316.849 19.1211L317.013 18.9326L314.999 17.1787L314.835 17.3672L314.671 17.5557L316.684 19.3096L316.849 19.1211ZM314.835 17.3672V17.6172H330.161V17.3672V17.1172H314.835V17.3672ZM330.161 17.3672L330.003 17.1737L327.835 18.9481L327.993 19.1416L328.152 19.3351L330.319 17.5606L330.161 17.3672Z" fill="black"/>
<path d="M194 51.3111L194.705 22.3778L203.969 23.6571L205.681 36.254H210.312L211.823 23.6571L220.885 21L223 52L210.312 51.3111L211.823 39.9937H205.681L202.66 51.3111H194Z" fill="#82A985" stroke="black" stroke-width="0.5"/>
<path d="M230 51.3111L230.705 22.3778L239.969 23.6571L241.681 36.254H246.312L247.823 23.6571L256.885 21L259 52L246.312 51.3111L247.823 39.9937H241.681L238.66 51.3111H230Z" fill="#82A985" stroke="black" stroke-width="0.5"/>
<path d="M26 21L28.0377 49.4672L45.6981 51L56 48.4818L53.5094 35.6715L49.2075 34.6861C49.2075 34.6861 40.2573 40.0995 35.7358 37.7518C31.2144 35.4042 30.6415 26.0365 30.6415 26.0365L53.5094 29.5401V22.7518L26 21Z" fill="#82A985" stroke="black" stroke-width="0.5"/>
<path d="M615.723 32H601V38.1277L618 40L615.723 32Z" fill="#82A985" stroke="black" stroke-width="0.5"/>
<path d="M2242.85 24C2242.85 24 2245.31 44.9616 2237.09 46.9056C2235.15 47.3649 2232 46.9056 2232 46.9056L2231 55H2235.08V51.3833L2261.59 52.3306V55H2265V48.5417L2259.65 46.9056L2253.15 24H2242.85Z" fill="#82A985" stroke="black" stroke-width="0.5"/>
<path d="M2091 24L2093.67 52.8275L2116 55L2114.17 48.0647L2100.42 49.2345V42.5499L2105.83 41.4636V37.8706L2099.17 39.7089L2098.25 33.2749H2113.17L2116 26.1725L2091 24Z" fill="#82A985" stroke="black" stroke-width="0.5"/>
<path d="M2123 54V26.21L2131.43 23.7234V31.912L2145.47 21L2151.55 26.21L2133.3 37.1311L2156 44.5727V54L2131.43 46.8043V54H2123Z" fill="#82A985" stroke="black" stroke-width="0.5"/>
<path d="M2198 54.3111L2198.68 25.3778L2207.62 26.6571L2209.28 39.254H2213.75L2215.21 26.6571L2223.96 24L2226 55L2213.75 54.3111L2215.21 42.9937H2209.28L2206.36 54.3111H2198Z" fill="#82A985" stroke="black" stroke-width="0.5"/>
<path d="M2169.33 24.0827L2165.82 31.3258C2165.82 31.3258 2164.62 33.3302 2164.23 34.7943C2163.34 38.1365 2165.29 43.6696 2165.29 43.6696L2167.05 51.4227L2173.2 54.0751C2173.2 54.0751 2179.21 56.1562 2182.26 54.0751C2184.3 52.6833 2186.13 48.6683 2186.13 48.6683L2188.33 41.8333L2190 33.162C2190 33.162 2186.17 26.1569 2182.26 24.0827C2177.67 21.6466 2169.33 24.0827 2169.33 24.0827Z" fill="#82A985" stroke="black" stroke-width="0.5"/>
<path d="M2078.81 23L2084.04 31.072L2078.81 34.406L2074.93 31.7739H2069.88L2067.98 41.1619L2076.37 45.8998L2082.96 41.1619L2089 44.9347L2081.69 53.9718C2081.69 53.9718 2064.77 54.8003 2060.31 47.4791C2056.18 40.6942 2063.11 27.4747 2063.11 27.4747L2078.81 23Z" fill="#82A985" stroke="black" stroke-width="0.5"/>
<path d="M2407.85 25C2407.85 25 2410.31 45.2854 2402.09 47.1667C2400.15 47.6112 2397 47.1667 2397 47.1667L2396 55H2400.08V51.5L2426.59 52.4167V55H2430V48.75L2424.65 47.1667L2418.15 25H2407.85Z" fill="#82A985" stroke="black" stroke-width="0.5"/>
<path d="M2329 24L2331.67 52.8275L2354 55L2352.17 48.0647L2338.42 49.2345V42.5499L2343.83 41.4636V37.8706L2337.17 39.7089L2336.25 33.2749H2351.17L2354 26.1725L2329 24Z" fill="#82A985" stroke="black" stroke-width="0.5"/>
<path d="M2362 55.2889L2362.7 25.4222L2371.97 26.7429L2373.68 39.746H2378.31L2379.82 26.7429L2388.89 24L2391 56L2378.31 55.2889L2379.82 43.6063H2373.68L2370.66 55.2889H2362Z" fill="#82A985" stroke="black" stroke-width="0.5"/>
<path d="M2297.33 25.3881H2286.68L2298.25 42.199L2284 55H2293.5L2304.3 42.199L2306.45 55L2319.01 53.1493L2310.35 38.9602L2321 24H2314.57L2304.3 33.3308L2297.33 25.3881Z" fill="#82A985" stroke="black" stroke-width="0.5"/>
<path d="M1794 54L1795.75 24.6822L1807.63 23L1818 27.0853L1815.44 33.9341L1811.36 36.6977L1805.65 39.1008H1818V44.0271V54H1794Z" fill="#82A985" stroke="black" stroke-width="0.5"/>
<path d="M1931 53.8289V27.2378L1937.16 24L1938.38 40.8778L1952.32 41.4289L1952.92 46.1822V52.52L1944.6 55L1931 53.8289Z" fill="#82A985"/>
<path d="M1957.86 53.8289L1956.98 24.6889H1961.45L1967 53.8289H1957.86Z" fill="#82A985"/>
<path d="M1931 53.8289V27.2378L1937.16 24L1938.38 40.8778L1952.32 41.4289L1952.92 46.1822V52.52L1944.6 55L1931 53.8289Z" stroke="black" stroke-width="0.5"/>
<path d="M1957.86 53.8289L1956.98 24.6889H1961.45L1967 53.8289H1957.86Z" stroke="black" stroke-width="0.5"/>
<path d="M1825 24L1827.67 52.8275L1850 55L1848.17 48.0647L1834.42 49.2345V42.5499L1839.83 41.4636V37.8706L1833.17 39.7089L1832.25 33.2749H1847.17L1850 26.1725L1825 24Z" fill="#82A985" stroke="black" stroke-width="0.5"/>
<path d="M1745.38 26.2259L1738.85 57.0004L1731.18 52.9239L1733.34 38.659L1722.83 31.3087L1725.71 25.8982L1735.53 34.5365L1739.03 22.8504L1745.38 26.2259Z" fill="#82A985" stroke="black" stroke-width="0.5"/>
<path d="M1751 54V26.21L1759.43 23.7234V31.912L1773.47 21L1779.55 26.21L1761.3 37.1311L1784 44.5727V54L1759.43 46.8043V54H1751Z" fill="#82A985" stroke="black" stroke-width="0.5"/>
<path d="M1998.24 24.9814L2011.97 53.9531L2012.65 55.3809H1999.56L1999.34 54.6924L1996.81 46.9561L1984.94 55.2021L1984.68 55.3809H1976.04L1975.96 54.4658L1973.69 27.7676L1973.6 26.6836H1981.12L1981.3 27.4482L1985.05 42.9902L1992.15 39.4717L1990.87 25.501L1990.77 24.4092H1997.97L1998.24 24.9814ZM1991.99 22.1416L1989.21 24.415L1988.94 24.6416H1983.74L1983.46 24.3955L1980.85 22.1211L1978.83 20.3672H1994.16L1991.99 22.1416Z" fill="#82A985"/>
<path d="M1998.24 24.9814L1998.47 24.8744L1998.47 24.8743L1998.24 24.9814ZM2011.97 53.9531L2011.75 54.0602L2011.75 54.0602L2011.97 53.9531ZM2012.65 55.3809V55.6309H2013.04L2012.87 55.2738L2012.65 55.3809ZM1999.56 55.3809L1999.32 55.4587L1999.38 55.6309H1999.56V55.3809ZM1999.34 54.6924L1999.1 54.7701L1999.1 54.7702L1999.34 54.6924ZM1996.81 46.9561L1997.04 46.8783L1996.94 46.5591L1996.66 46.7508L1996.81 46.9561ZM1984.94 55.2021L1984.8 54.9969L1984.8 54.9969L1984.94 55.2021ZM1984.68 55.3809V55.6309H1984.76L1984.83 55.5861L1984.68 55.3809ZM1976.04 55.3809L1975.79 55.4021L1975.81 55.6309H1976.04V55.3809ZM1975.96 54.4658L1975.71 54.487L1975.71 54.4871L1975.96 54.4658ZM1973.69 27.7676L1973.94 27.7464L1973.94 27.7463L1973.69 27.7676ZM1973.6 26.6836V26.4336H1973.32L1973.35 26.7049L1973.6 26.6836ZM1981.12 26.6836L1981.36 26.6249L1981.31 26.4336H1981.12V26.6836ZM1981.3 27.4482L1981.54 27.3896L1981.54 27.3896L1981.3 27.4482ZM1985.05 42.9902L1984.8 43.0488L1984.88 43.3532L1985.16 43.2143L1985.05 42.9902ZM1992.15 39.4717L1992.27 39.6957L1992.42 39.6196L1992.4 39.4488L1992.15 39.4717ZM1990.87 25.501L1991.12 25.4781L1991.12 25.478L1990.87 25.501ZM1990.77 24.4092V24.1592H1990.5L1990.52 24.4321L1990.77 24.4092ZM1997.97 24.4092L1998.2 24.302L1998.13 24.1592H1997.97V24.4092ZM1991.99 22.1416L1992.15 22.3351L1992.15 22.3351L1991.99 22.1416ZM1989.21 24.415L1989.06 24.2215L1989.06 24.2217L1989.21 24.415ZM1988.94 24.6416V24.8916H1989.03L1989.1 24.8349L1988.94 24.6416ZM1983.74 24.6416L1983.58 24.83L1983.65 24.8916H1983.74V24.6416ZM1983.46 24.3955L1983.62 24.2071L1983.62 24.207L1983.46 24.3955ZM1980.85 22.1211L1980.68 22.3096L1980.68 22.3096L1980.85 22.1211ZM1978.83 20.3672V20.1172H1978.17L1978.67 20.5557L1978.83 20.3672ZM1994.16 20.3672L1994.32 20.5606L1994.86 20.1172H1994.16V20.3672ZM1998.24 24.9814L1998.02 25.0885L2011.75 54.0602L2011.97 53.9531L2012.2 53.8461L1998.47 24.8744L1998.24 24.9814ZM2011.97 53.9531L2011.75 54.0602L2012.42 55.4879L2012.65 55.3809L2012.87 55.2738L2012.2 53.846L2011.97 53.9531ZM2012.65 55.3809V55.1309H1999.56V55.3809V55.6309H2012.65V55.3809ZM1999.56 55.3809L1999.8 55.303L1999.57 54.6145L1999.34 54.6924L1999.1 54.7702L1999.32 55.4587L1999.56 55.3809ZM1999.34 54.6924L1999.57 54.6147L1997.04 46.8783L1996.81 46.9561L1996.57 47.0338L1999.1 54.7701L1999.34 54.6924ZM1996.81 46.9561L1996.66 46.7508L1984.8 54.9969L1984.94 55.2021L1985.08 55.4074L1996.95 47.1614L1996.81 46.9561ZM1984.94 55.2021L1984.8 54.9969L1984.54 55.1756L1984.68 55.3809L1984.83 55.5861L1985.08 55.4074L1984.94 55.2021ZM1984.68 55.3809V55.1309H1976.04V55.3809V55.6309H1984.68V55.3809ZM1976.04 55.3809L1976.29 55.3596L1976.21 54.4446L1975.96 54.4658L1975.71 54.4871L1975.79 55.4021L1976.04 55.3809ZM1975.96 54.4658L1976.21 54.4446L1973.94 27.7464L1973.69 27.7676L1973.44 27.7888L1975.71 54.487L1975.96 54.4658ZM1973.69 27.7676L1973.94 27.7463L1973.84 26.6623L1973.6 26.6836L1973.35 26.7049L1973.44 27.7889L1973.69 27.7676ZM1973.6 26.6836V26.9336H1981.12V26.6836V26.4336H1973.6V26.6836ZM1981.12 26.6836L1980.87 26.7423L1981.06 27.5069L1981.3 27.4482L1981.54 27.3896L1981.36 26.6249L1981.12 26.6836ZM1981.3 27.4482L1981.06 27.5069L1984.8 43.0488L1985.05 42.9902L1985.29 42.9316L1981.54 27.3896L1981.3 27.4482ZM1985.05 42.9902L1985.16 43.2143L1992.27 39.6957L1992.15 39.4717L1992.04 39.2476L1984.94 42.7662L1985.05 42.9902ZM1992.15 39.4717L1992.4 39.4488L1991.12 25.4781L1990.87 25.501L1990.62 25.5239L1991.91 39.4946L1992.15 39.4717ZM1990.87 25.501L1991.12 25.478L1991.02 24.3862L1990.77 24.4092L1990.52 24.4321L1990.62 25.5239L1990.87 25.501ZM1990.77 24.4092V24.6592H1997.97V24.4092V24.1592H1990.77V24.4092ZM1997.97 24.4092L1997.75 24.5163L1998.02 25.0886L1998.24 24.9814L1998.47 24.8743L1998.2 24.302L1997.97 24.4092ZM1991.99 22.1416L1991.83 21.9481L1989.06 24.2215L1989.21 24.415L1989.37 24.6085L1992.15 22.3351L1991.99 22.1416ZM1989.21 24.415L1989.06 24.2217L1988.78 24.4483L1988.94 24.6416L1989.1 24.8349L1989.37 24.6084L1989.21 24.415ZM1988.94 24.6416V24.3916H1983.74V24.6416V24.8916H1988.94V24.6416ZM1983.74 24.6416L1983.91 24.4532L1983.62 24.2071L1983.46 24.3955L1983.3 24.5839L1983.58 24.83L1983.74 24.6416ZM1983.46 24.3955L1983.62 24.207L1981.01 21.9326L1980.85 22.1211L1980.68 22.3096L1983.3 24.584L1983.46 24.3955ZM1980.85 22.1211L1981.01 21.9326L1979 20.1787L1978.83 20.3672L1978.67 20.5557L1980.68 22.3096L1980.85 22.1211ZM1978.83 20.3672V20.6172H1994.16V20.3672V20.1172H1978.83V20.3672ZM1994.16 20.3672L1994 20.1737L1991.83 21.9481L1991.99 22.1416L1992.15 22.3351L1994.32 20.5606L1994.16 20.3672Z" fill="black"/>
<path d="M1858 54.3111L1858.7 25.3778L1867.97 26.6571L1869.68 39.254H1874.31L1875.82 26.6571L1884.89 24L1887 55L1874.31 54.3111L1875.82 42.9937H1869.68L1866.66 54.3111H1858Z" fill="#82A985" stroke="black" stroke-width="0.5"/>
<path d="M1894 54.3111L1894.7 25.3778L1903.97 26.6571L1905.68 39.254H1910.31L1911.82 26.6571L1920.89 24L1923 55L1910.31 54.3111L1911.82 42.9937H1905.68L1902.66 54.3111H1894Z" fill="#82A985" stroke="black" stroke-width="0.5"/>
<path d="M1690 24L1692.04 52.4672L1709.7 54L1720 51.4818L1717.51 38.6715L1713.21 37.6861C1713.21 37.6861 1704.26 43.0995 1699.74 40.7518C1695.21 38.4042 1694.64 29.0365 1694.64 29.0365L1717.51 32.5401V25.7518L1690 24Z" fill="#82A985" stroke="black" stroke-width="0.5"/>
<path d="M2279.72 35H2265V41.1277L2282 43L2279.72 35Z" fill="#82A985" stroke="black" stroke-width="0.5"/>
<path d="M1410.85 22C1410.85 22 1413.31 42.9616 1405.09 44.9056C1403.15 45.3649 1400 44.9056 1400 44.9056L1399 53H1403.08V49.3833L1429.59 50.3306V53H1433V46.5417L1427.65 44.9056L1421.15 22H1410.85Z" fill="#82A985" stroke="black" stroke-width="0.5"/>
<path d="M1259 22L1261.67 50.8275L1284 53L1282.17 46.0647L1268.42 47.2345V40.5499L1273.83 39.4636V35.8706L1267.17 37.7089L1266.25 31.2749H1281.17L1284 24.1725L1259 22Z" fill="#82A985" stroke="black" stroke-width="0.5"/>
<path d="M1291 52V24.21L1299.43 21.7234V29.912L1313.47 19L1319.55 24.21L1301.3 35.1311L1324 42.5727V52L1299.43 44.8043V52H1291Z" fill="#82A985" stroke="black" stroke-width="0.5"/>
<path d="M1366 52.3111L1366.68 23.3778L1375.62 24.6571L1377.28 37.254H1381.75L1383.21 24.6571L1391.96 22L1394 53L1381.75 52.3111L1383.21 40.9937H1377.28L1374.36 52.3111H1366Z" fill="#82A985" stroke="black" stroke-width="0.5"/>
<path d="M1337.33 22.0827L1333.82 29.3258C1333.82 29.3258 1332.62 31.3302 1332.23 32.7943C1331.34 36.1365 1333.29 41.6696 1333.29 41.6696L1335.05 49.4227L1341.2 52.0751C1341.2 52.0751 1347.21 54.1562 1350.26 52.0751C1352.3 50.6833 1354.13 46.6683 1354.13 46.6683L1356.33 39.8333L1358 31.162C1358 31.162 1354.17 24.1569 1350.26 22.0827C1345.67 19.6466 1337.33 22.0827 1337.33 22.0827Z" fill="#82A985" stroke="black" stroke-width="0.5"/>
<path d="M1246.81 21L1252.04 29.072L1246.81 32.406L1242.93 29.7739H1237.88L1235.98 39.1619L1244.37 43.8998L1250.96 39.1619L1257 42.9347L1249.69 51.9718C1249.69 51.9718 1232.77 52.8003 1228.31 45.4791C1224.18 38.6942 1231.11 25.4747 1231.11 25.4747L1246.81 21Z" fill="#82A985" stroke="black" stroke-width="0.5"/>
<path d="M1575.85 23C1575.85 23 1578.31 43.2854 1570.09 45.1667C1568.15 45.6112 1565 45.1667 1565 45.1667L1564 53H1568.08V49.5L1594.59 50.4167V53H1598V46.75L1592.65 45.1667L1586.15 23H1575.85Z" fill="#82A985" stroke="black" stroke-width="0.5"/>
<path d="M1497 22L1499.67 50.8275L1522 53L1520.17 46.0647L1506.42 47.2345V40.5499L1511.83 39.4636V35.8706L1505.17 37.7089L1504.25 31.2749H1519.17L1522 24.1725L1497 22Z" fill="#82A985" stroke="black" stroke-width="0.5"/>
<path d="M1530 53.2889L1530.7 23.4222L1539.97 24.7429L1541.68 37.746H1546.31L1547.82 24.7429L1556.89 22L1559 54L1546.31 53.2889L1547.82 41.6063H1541.68L1538.66 53.2889H1530Z" fill="#82A985" stroke="black" stroke-width="0.5"/>
<path d="M1465.33 23.3881H1454.68L1466.25 40.199L1452 53H1461.5L1472.3 40.199L1474.45 53L1487.01 51.1493L1478.35 36.9602L1489 22H1482.57L1472.3 31.3308L1465.33 23.3881Z" fill="#82A985" stroke="black" stroke-width="0.5"/>
<path d="M962 52L963.748 22.6822L975.631 21L986 25.0853L983.437 31.9341L979.359 34.6977L973.65 37.1008H986V42.0271V52H962Z" fill="#82A985" stroke="black" stroke-width="0.5"/>
<path d="M1099 51.8289V25.2378L1105.16 22L1106.38 38.8778L1120.32 39.4289L1120.92 44.1822V50.52L1112.6 53L1099 51.8289Z" fill="#82A985"/>
<path d="M1125.86 51.8289L1124.98 22.6889H1129.45L1135 51.8289H1125.86Z" fill="#82A985"/>
<path d="M1099 51.8289V25.2378L1105.16 22L1106.38 38.8778L1120.32 39.4289L1120.92 44.1822V50.52L1112.6 53L1099 51.8289Z" stroke="black" stroke-width="0.5"/>
<path d="M1125.86 51.8289L1124.98 22.6889H1129.45L1135 51.8289H1125.86Z" stroke="black" stroke-width="0.5"/>
<path d="M993 22L995.667 50.8275L1018 53L1016.17 46.0647L1002.42 47.2345V40.5499L1007.83 39.4636V35.8706L1001.17 37.7089L1000.25 31.2749H1015.17L1018 24.1725L993 22Z" fill="#82A985" stroke="black" stroke-width="0.5"/>
<path d="M913.377 24.2259L906.846 55.0004L899.18 50.9239L901.342 36.659L890.831 29.3087L893.708 23.8982L903.534 32.5365L907.029 20.8504L913.377 24.2259Z" fill="#82A985" stroke="black" stroke-width="0.5"/>
<path d="M919 52V24.21L927.426 21.7234V29.912L941.47 19L947.551 24.21L929.299 35.1311L952 42.5727V52L927.426 44.8043V52H919Z" fill="#82A985" stroke="black" stroke-width="0.5"/>
<path d="M1166.24 22.9814L1179.97 51.9531L1180.65 53.3809H1167.56L1167.34 52.6924L1164.81 44.9561L1152.94 53.2021L1152.68 53.3809H1144.04L1143.96 52.4658L1141.69 25.7676L1141.6 24.6836H1149.12L1149.3 25.4482L1153.05 40.9902L1160.15 37.4717L1158.87 23.501L1158.77 22.4092H1165.97L1166.24 22.9814ZM1159.99 20.1416L1157.21 22.415L1156.94 22.6416H1151.74L1151.46 22.3955L1148.85 20.1211L1146.83 18.3672H1162.16L1159.99 20.1416Z" fill="#82A985"/>
<path d="M1166.24 22.9814L1166.47 22.8744L1166.47 22.8743L1166.24 22.9814ZM1179.97 51.9531L1179.75 52.0602L1179.75 52.0602L1179.97 51.9531ZM1180.65 53.3809V53.6309H1181.04L1180.87 53.2738L1180.65 53.3809ZM1167.56 53.3809L1167.32 53.4587L1167.38 53.6309H1167.56V53.3809ZM1167.34 52.6924L1167.1 52.7701L1167.1 52.7702L1167.34 52.6924ZM1164.81 44.9561L1165.04 44.8783L1164.94 44.5591L1164.66 44.7508L1164.81 44.9561ZM1152.94 53.2021L1152.8 52.9969L1152.8 52.9969L1152.94 53.2021ZM1152.68 53.3809V53.6309H1152.76L1152.83 53.5861L1152.68 53.3809ZM1144.04 53.3809L1143.79 53.4021L1143.81 53.6309H1144.04V53.3809ZM1143.96 52.4658L1143.71 52.487L1143.71 52.4871L1143.96 52.4658ZM1141.69 25.7676L1141.94 25.7464L1141.94 25.7463L1141.69 25.7676ZM1141.6 24.6836V24.4336H1141.32L1141.35 24.7049L1141.6 24.6836ZM1149.12 24.6836L1149.36 24.6249L1149.31 24.4336H1149.12V24.6836ZM1149.3 25.4482L1149.54 25.3896L1149.54 25.3896L1149.3 25.4482ZM1153.05 40.9902L1152.8 41.0488L1152.88 41.3532L1153.16 41.2143L1153.05 40.9902ZM1160.15 37.4717L1160.27 37.6957L1160.42 37.6196L1160.4 37.4488L1160.15 37.4717ZM1158.87 23.501L1159.12 23.4781L1159.12 23.478L1158.87 23.501ZM1158.77 22.4092V22.1592H1158.5L1158.52 22.4321L1158.77 22.4092ZM1165.97 22.4092L1166.2 22.302L1166.13 22.1592H1165.97V22.4092ZM1159.99 20.1416L1160.15 20.3351L1160.15 20.3351L1159.99 20.1416ZM1157.21 22.415L1157.06 22.2215L1157.06 22.2217L1157.21 22.415ZM1156.94 22.6416V22.8916H1157.03L1157.1 22.8349L1156.94 22.6416ZM1151.74 22.6416L1151.58 22.83L1151.65 22.8916H1151.74V22.6416ZM1151.46 22.3955L1151.62 22.2071L1151.62 22.207L1151.46 22.3955ZM1148.85 20.1211L1148.68 20.3096L1148.68 20.3096L1148.85 20.1211ZM1146.83 18.3672V18.1172H1146.17L1146.67 18.5557L1146.83 18.3672ZM1162.16 18.3672L1162.32 18.5606L1162.86 18.1172H1162.16V18.3672ZM1166.24 22.9814L1166.02 23.0885L1179.75 52.0602L1179.97 51.9531L1180.2 51.8461L1166.47 22.8744L1166.24 22.9814ZM1179.97 51.9531L1179.75 52.0602L1180.42 53.4879L1180.65 53.3809L1180.87 53.2738L1180.2 51.846L1179.97 51.9531ZM1180.65 53.3809V53.1309H1167.56V53.3809V53.6309H1180.65V53.3809ZM1167.56 53.3809L1167.8 53.303L1167.57 52.6145L1167.34 52.6924L1167.1 52.7702L1167.32 53.4587L1167.56 53.3809ZM1167.34 52.6924L1167.57 52.6147L1165.04 44.8783L1164.81 44.9561L1164.57 45.0338L1167.1 52.7701L1167.34 52.6924ZM1164.81 44.9561L1164.66 44.7508L1152.8 52.9969L1152.94 53.2021L1153.08 53.4074L1164.95 45.1614L1164.81 44.9561ZM1152.94 53.2021L1152.8 52.9969L1152.54 53.1756L1152.68 53.3809L1152.83 53.5861L1153.08 53.4074L1152.94 53.2021ZM1152.68 53.3809V53.1309H1144.04V53.3809V53.6309H1152.68V53.3809ZM1144.04 53.3809L1144.29 53.3596L1144.21 52.4446L1143.96 52.4658L1143.71 52.4871L1143.79 53.4021L1144.04 53.3809ZM1143.96 52.4658L1144.21 52.4446L1141.94 25.7464L1141.69 25.7676L1141.44 25.7888L1143.71 52.487L1143.96 52.4658ZM1141.69 25.7676L1141.94 25.7463L1141.84 24.6623L1141.6 24.6836L1141.35 24.7049L1141.44 25.7889L1141.69 25.7676ZM1141.6 24.6836V24.9336H1149.12V24.6836V24.4336H1141.6V24.6836ZM1149.12 24.6836L1148.87 24.7423L1149.06 25.5069L1149.3 25.4482L1149.54 25.3896L1149.36 24.6249L1149.12 24.6836ZM1149.3 25.4482L1149.06 25.5069L1152.8 41.0488L1153.05 40.9902L1153.29 40.9316L1149.54 25.3896L1149.3 25.4482ZM1153.05 40.9902L1153.16 41.2143L1160.27 37.6957L1160.15 37.4717L1160.04 37.2476L1152.94 40.7662L1153.05 40.9902ZM1160.15 37.4717L1160.4 37.4488L1159.12 23.4781L1158.87 23.501L1158.62 23.5239L1159.91 37.4946L1160.15 37.4717ZM1158.87 23.501L1159.12 23.478L1159.02 22.3862L1158.77 22.4092L1158.52 22.4321L1158.62 23.5239L1158.87 23.501ZM1158.77 22.4092V22.6592H1165.97V22.4092V22.1592H1158.77V22.4092ZM1165.97 22.4092L1165.75 22.5163L1166.02 23.0886L1166.24 22.9814L1166.47 22.8743L1166.2 22.302L1165.97 22.4092ZM1159.99 20.1416L1159.83 19.9481L1157.06 22.2215L1157.21 22.415L1157.37 22.6085L1160.15 20.3351L1159.99 20.1416ZM1157.21 22.415L1157.06 22.2217L1156.78 22.4483L1156.94 22.6416L1157.1 22.8349L1157.37 22.6084L1157.21 22.415ZM1156.94 22.6416V22.3916H1151.74V22.6416V22.8916H1156.94V22.6416ZM1151.74 22.6416L1151.91 22.4532L1151.62 22.2071L1151.46 22.3955L1151.3 22.5839L1151.58 22.83L1151.74 22.6416ZM1151.46 22.3955L1151.62 22.207L1149.01 19.9326L1148.85 20.1211L1148.68 20.3096L1151.3 22.584L1151.46 22.3955ZM1148.85 20.1211L1149.01 19.9326L1147 18.1787L1146.83 18.3672L1146.67 18.5557L1148.68 20.3096L1148.85 20.1211ZM1146.83 18.3672V18.6172H1162.16V18.3672V18.1172H1146.83V18.3672ZM1162.16 18.3672L1162 18.1737L1159.83 19.9481L1159.99 20.1416L1160.15 20.3351L1162.32 18.5606L1162.16 18.3672Z" fill="black"/>
<path d="M1026 52.3111L1026.7 23.3778L1035.97 24.6571L1037.68 37.254H1042.31L1043.82 24.6571L1052.89 22L1055 53L1042.31 52.3111L1043.82 40.9937H1037.68L1034.66 52.3111H1026Z" fill="#82A985" stroke="black" stroke-width="0.5"/>
<path d="M1062 52.3111L1062.7 23.3778L1071.97 24.6571L1073.68 37.254H1078.31L1079.82 24.6571L1088.89 22L1091 53L1078.31 52.3111L1079.82 40.9937H1073.68L1070.66 52.3111H1062Z" fill="#82A985" stroke="black" stroke-width="0.5"/>
<path d="M858 22L860.038 50.4672L877.698 52L888 49.4818L885.509 36.6715L881.208 35.6861C881.208 35.6861 872.257 41.0995 867.736 38.7518C863.214 36.4042 862.642 27.0365 862.642 27.0365L885.509 30.5401V23.7518L858 22Z" fill="#82A985" stroke="black" stroke-width="0.5"/>
<path d="M1447.72 33H1433V39.1277L1450 41L1447.72 33Z" fill="#82A985" stroke="black" stroke-width="0.5"/>
<rect x="2515" width="2530" height="69" fill="#2C3872"/>
<path d="M3093.85 21C3093.85 21 3096.31 41.9616 3088.09 43.9056C3086.15 44.3649 3083 43.9056 3083 43.9056L3082 52H3086.08V48.3833L3112.59 49.3306V52H3116V45.5417L3110.65 43.9056L3104.15 21H3093.85Z" fill="#82A985" stroke="black" stroke-width="0.5"/>
<path d="M2942 21L2944.67 49.8275L2967 52L2965.17 45.0647L2951.42 46.2345V39.5499L2956.83 38.4636V34.8706L2950.17 36.7089L2949.25 30.2749H2964.17L2967 23.1725L2942 21Z" fill="#82A985" stroke="black" stroke-width="0.5"/>
<path d="M2974 51V23.21L2982.43 20.7234V28.912L2996.47 18L3002.55 23.21L2984.3 34.1311L3007 41.5727V51L2982.43 43.8043V51H2974Z" fill="#82A985" stroke="black" stroke-width="0.5"/>
<path d="M3049 51.3111L3049.68 22.3778L3058.62 23.6571L3060.28 36.254H3064.75L3066.21 23.6571L3074.96 21L3077 52L3064.75 51.3111L3066.21 39.9937H3060.28L3057.36 51.3111H3049Z" fill="#82A985" stroke="black" stroke-width="0.5"/>
<path d="M3020.33 21.0827L3016.82 28.3258C3016.82 28.3258 3015.62 30.3302 3015.23 31.7943C3014.34 35.1365 3016.29 40.6696 3016.29 40.6696L3018.05 48.4227L3024.2 51.0751C3024.2 51.0751 3030.21 53.1562 3033.26 51.0751C3035.3 49.6833 3037.13 45.6683 3037.13 45.6683L3039.33 38.8333L3041 30.162C3041 30.162 3037.17 23.1569 3033.26 21.0827C3028.67 18.6466 3020.33 21.0827 3020.33 21.0827Z" fill="#82A985" stroke="black" stroke-width="0.5"/>
<path d="M2929.81 20L2935.04 28.072L2929.81 31.406L2925.93 28.7739H2920.88L2918.98 38.1619L2927.37 42.8998L2933.96 38.1619L2940 41.9347L2932.69 50.9718C2932.69 50.9718 2915.77 51.8003 2911.31 44.4791C2907.18 37.6942 2914.11 24.4747 2914.11 24.4747L2929.81 20Z" fill="#82A985" stroke="black" stroke-width="0.5"/>
<path d="M3258.85 22C3258.85 22 3261.31 42.2854 3253.09 44.1667C3251.15 44.6112 3248 44.1667 3248 44.1667L3247 52H3251.08V48.5L3277.59 49.4167V52H3281V45.75L3275.65 44.1667L3269.15 22H3258.85Z" fill="#82A985" stroke="black" stroke-width="0.5"/>
<path d="M3180 21L3182.67 49.8275L3205 52L3203.17 45.0647L3189.42 46.2345V39.5499L3194.83 38.4636V34.8706L3188.17 36.7089L3187.25 30.2749H3202.17L3205 23.1725L3180 21Z" fill="#82A985" stroke="black" stroke-width="0.5"/>
<path d="M3213 52.2889L3213.7 22.4222L3222.97 23.7429L3224.68 36.746H3229.31L3230.82 23.7429L3239.89 21L3242 53L3229.31 52.2889L3230.82 40.6063H3224.68L3221.66 52.2889H3213Z" fill="#82A985" stroke="black" stroke-width="0.5"/>
<path d="M3148.33 22.3881H3137.68L3149.25 39.199L3135 52H3144.5L3155.3 39.199L3157.45 52L3170.01 50.1493L3161.35 35.9602L3172 21H3165.57L3155.3 30.3308L3148.33 22.3881Z" fill="#82A985" stroke="black" stroke-width="0.5"/>
<path d="M2645 51L2646.75 21.6822L2658.63 20L2669 24.0853L2666.44 30.9341L2662.36 33.6977L2656.65 36.1008H2669V41.0271V51H2645Z" fill="#82A985" stroke="black" stroke-width="0.5"/>
<path d="M2782 50.8289V24.2378L2788.16 21L2789.38 37.8778L2803.32 38.4289L2803.92 43.1822V49.52L2795.6 52L2782 50.8289Z" fill="#82A985"/>
<path d="M2808.86 50.8289L2807.98 21.6889H2812.45L2818 50.8289H2808.86Z" fill="#82A985"/>
<path d="M2782 50.8289V24.2378L2788.16 21L2789.38 37.8778L2803.32 38.4289L2803.92 43.1822V49.52L2795.6 52L2782 50.8289Z" stroke="black" stroke-width="0.5"/>
<path d="M2808.86 50.8289L2807.98 21.6889H2812.45L2818 50.8289H2808.86Z" stroke="black" stroke-width="0.5"/>
<path d="M2676 21L2678.67 49.8275L2701 52L2699.17 45.0647L2685.42 46.2345V39.5499L2690.83 38.4636V34.8706L2684.17 36.7089L2683.25 30.2749H2698.17L2701 23.1725L2676 21Z" fill="#82A985" stroke="black" stroke-width="0.5"/>
<path d="M2596.38 23.2259L2589.85 54.0004L2582.18 49.9239L2584.34 35.659L2573.83 28.3087L2576.71 22.8982L2586.53 31.5365L2590.03 19.8504L2596.38 23.2259Z" fill="#82A985" stroke="black" stroke-width="0.5"/>
<path d="M2602 51V23.21L2610.43 20.7234V28.912L2624.47 18L2630.55 23.21L2612.3 34.1311L2635 41.5727V51L2610.43 43.8043V51H2602Z" fill="#82A985" stroke="black" stroke-width="0.5"/>
<path d="M2849.24 21.9814L2862.97 50.9531L2863.65 52.3809H2850.56L2850.34 51.6924L2847.81 43.9561L2835.94 52.2021L2835.68 52.3809H2827.04L2826.96 51.4658L2824.69 24.7676L2824.6 23.6836H2832.12L2832.3 24.4482L2836.05 39.9902L2843.15 36.4717L2841.87 22.501L2841.77 21.4092H2848.97L2849.24 21.9814ZM2842.99 19.1416L2840.21 21.415L2839.94 21.6416H2834.74L2834.46 21.3955L2831.85 19.1211L2829.83 17.3672H2845.16L2842.99 19.1416Z" fill="#82A985"/>
<path d="M2849.24 21.9814L2849.47 21.8744L2849.47 21.8743L2849.24 21.9814ZM2862.97 50.9531L2862.75 51.0602L2862.75 51.0602L2862.97 50.9531ZM2863.65 52.3809V52.6309H2864.04L2863.87 52.2738L2863.65 52.3809ZM2850.56 52.3809L2850.32 52.4587L2850.38 52.6309H2850.56V52.3809ZM2850.34 51.6924L2850.1 51.7701L2850.1 51.7702L2850.34 51.6924ZM2847.81 43.9561L2848.04 43.8783L2847.94 43.5591L2847.66 43.7508L2847.81 43.9561ZM2835.94 52.2021L2835.8 51.9969L2835.8 51.9969L2835.94 52.2021ZM2835.68 52.3809V52.6309H2835.76L2835.83 52.5861L2835.68 52.3809ZM2827.04 52.3809L2826.79 52.4021L2826.81 52.6309H2827.04V52.3809ZM2826.96 51.4658L2826.71 51.487L2826.71 51.4871L2826.96 51.4658ZM2824.69 24.7676L2824.94 24.7464L2824.94 24.7463L2824.69 24.7676ZM2824.6 23.6836V23.4336H2824.32L2824.35 23.7049L2824.6 23.6836ZM2832.12 23.6836L2832.36 23.6249L2832.31 23.4336H2832.12V23.6836ZM2832.3 24.4482L2832.54 24.3896L2832.54 24.3896L2832.3 24.4482ZM2836.05 39.9902L2835.8 40.0488L2835.88 40.3532L2836.16 40.2143L2836.05 39.9902ZM2843.15 36.4717L2843.27 36.6957L2843.42 36.6196L2843.4 36.4488L2843.15 36.4717ZM2841.87 22.501L2842.12 22.4781L2842.12 22.478L2841.87 22.501ZM2841.77 21.4092V21.1592H2841.5L2841.52 21.4321L2841.77 21.4092ZM2848.97 21.4092L2849.2 21.302L2849.13 21.1592H2848.97V21.4092ZM2842.99 19.1416L2843.15 19.3351L2843.15 19.3351L2842.99 19.1416ZM2840.21 21.415L2840.06 21.2215L2840.06 21.2217L2840.21 21.415ZM2839.94 21.6416V21.8916H2840.03L2840.1 21.8349L2839.94 21.6416ZM2834.74 21.6416L2834.58 21.83L2834.65 21.8916H2834.74V21.6416ZM2834.46 21.3955L2834.62 21.2071L2834.62 21.207L2834.46 21.3955ZM2831.85 19.1211L2831.68 19.3096L2831.68 19.3096L2831.85 19.1211ZM2829.83 17.3672V17.1172H2829.17L2829.67 17.5557L2829.83 17.3672ZM2845.16 17.3672L2845.32 17.5606L2845.86 17.1172H2845.16V17.3672ZM2849.24 21.9814L2849.02 22.0885L2862.75 51.0602L2862.97 50.9531L2863.2 50.8461L2849.47 21.8744L2849.24 21.9814ZM2862.97 50.9531L2862.75 51.0602L2863.42 52.4879L2863.65 52.3809L2863.87 52.2738L2863.2 50.846L2862.97 50.9531ZM2863.65 52.3809V52.1309H2850.56V52.3809V52.6309H2863.65V52.3809ZM2850.56 52.3809L2850.8 52.303L2850.57 51.6145L2850.34 51.6924L2850.1 51.7702L2850.32 52.4587L2850.56 52.3809ZM2850.34 51.6924L2850.57 51.6147L2848.04 43.8783L2847.81 43.9561L2847.57 44.0338L2850.1 51.7701L2850.34 51.6924ZM2847.81 43.9561L2847.66 43.7508L2835.8 51.9969L2835.94 52.2021L2836.08 52.4074L2847.95 44.1614L2847.81 43.9561ZM2835.94 52.2021L2835.8 51.9969L2835.54 52.1756L2835.68 52.3809L2835.83 52.5861L2836.08 52.4074L2835.94 52.2021ZM2835.68 52.3809V52.1309H2827.04V52.3809V52.6309H2835.68V52.3809ZM2827.04 52.3809L2827.29 52.3596L2827.21 51.4446L2826.96 51.4658L2826.71 51.4871L2826.79 52.4021L2827.04 52.3809ZM2826.96 51.4658L2827.21 51.4446L2824.94 24.7464L2824.69 24.7676L2824.44 24.7888L2826.71 51.487L2826.96 51.4658ZM2824.69 24.7676L2824.94 24.7463L2824.84 23.6623L2824.6 23.6836L2824.35 23.7049L2824.44 24.7889L2824.69 24.7676ZM2824.6 23.6836V23.9336H2832.12V23.6836V23.4336H2824.6V23.6836ZM2832.12 23.6836L2831.87 23.7423L2832.06 24.5069L2832.3 24.4482L2832.54 24.3896L2832.36 23.6249L2832.12 23.6836ZM2832.3 24.4482L2832.06 24.5069L2835.8 40.0488L2836.05 39.9902L2836.29 39.9316L2832.54 24.3896L2832.3 24.4482ZM2836.05 39.9902L2836.16 40.2143L2843.27 36.6957L2843.15 36.4717L2843.04 36.2476L2835.94 39.7662L2836.05 39.9902ZM2843.15 36.4717L2843.4 36.4488L2842.12 22.4781L2841.87 22.501L2841.62 22.5239L2842.91 36.4946L2843.15 36.4717ZM2841.87 22.501L2842.12 22.478L2842.02 21.3862L2841.77 21.4092L2841.52 21.4321L2841.62 22.5239L2841.87 22.501ZM2841.77 21.4092V21.6592H2848.97V21.4092V21.1592H2841.77V21.4092ZM2848.97 21.4092L2848.75 21.5163L2849.02 22.0886L2849.24 21.9814L2849.47 21.8743L2849.2 21.302L2848.97 21.4092ZM2842.99 19.1416L2842.83 18.9481L2840.06 21.2215L2840.21 21.415L2840.37 21.6085L2843.15 19.3351L2842.99 19.1416ZM2840.21 21.415L2840.06 21.2217L2839.78 21.4483L2839.94 21.6416L2840.1 21.8349L2840.37 21.6084L2840.21 21.415ZM2839.94 21.6416V21.3916H2834.74V21.6416V21.8916H2839.94V21.6416ZM2834.74 21.6416L2834.91 21.4532L2834.62 21.2071L2834.46 21.3955L2834.3 21.5839L2834.58 21.83L2834.74 21.6416ZM2834.46 21.3955L2834.62 21.207L2832.01 18.9326L2831.85 19.1211L2831.68 19.3096L2834.3 21.584L2834.46 21.3955ZM2831.85 19.1211L2832.01 18.9326L2830 17.1787L2829.83 17.3672L2829.67 17.5557L2831.68 19.3096L2831.85 19.1211ZM2829.83 17.3672V17.6172H2845.16V17.3672V17.1172H2829.83V17.3672ZM2845.16 17.3672L2845 17.1737L2842.83 18.9481L2842.99 19.1416L2843.15 19.3351L2845.32 17.5606L2845.16 17.3672Z" fill="black"/>
<path d="M2709 51.3111L2709.7 22.3778L2718.97 23.6571L2720.68 36.254H2725.31L2726.82 23.6571L2735.89 21L2738 52L2725.31 51.3111L2726.82 39.9937H2720.68L2717.66 51.3111H2709Z" fill="#82A985" stroke="black" stroke-width="0.5"/>
<path d="M2745 51.3111L2745.7 22.3778L2754.97 23.6571L2756.68 36.254H2761.31L2762.82 23.6571L2771.89 21L2774 52L2761.31 51.3111L2762.82 39.9937H2756.68L2753.66 51.3111H2745Z" fill="#82A985" stroke="black" stroke-width="0.5"/>
<path d="M2541 21L2543.04 49.4672L2560.7 51L2571 48.4818L2568.51 35.6715L2564.21 34.6861C2564.21 34.6861 2555.26 40.0995 2550.74 37.7518C2546.21 35.4042 2545.64 26.0365 2545.64 26.0365L2568.51 29.5401V22.7518L2541 21Z" fill="#82A985" stroke="black" stroke-width="0.5"/>
<path d="M3130.72 32H3116V38.1277L3133 40L3130.72 32Z" fill="#82A985" stroke="black" stroke-width="0.5"/>
<path d="M4757.85 24C4757.85 24 4760.31 44.9616 4752.09 46.9056C4750.15 47.3649 4747 46.9056 4747 46.9056L4746 55H4750.08V51.3833L4776.59 52.3306V55H4780V48.5417L4774.65 46.9056L4768.15 24H4757.85Z" fill="#82A985" stroke="black" stroke-width="0.5"/>
<path d="M4606 24L4608.67 52.8275L4631 55L4629.17 48.0647L4615.42 49.2345V42.5499L4620.83 41.4636V37.8706L4614.17 39.7089L4613.25 33.2749H4628.17L4631 26.1725L4606 24Z" fill="#82A985" stroke="black" stroke-width="0.5"/>
<path d="M4638 54V26.21L4646.43 23.7234V31.912L4660.47 21L4666.55 26.21L4648.3 37.1311L4671 44.5727V54L4646.43 46.8043V54H4638Z" fill="#82A985" stroke="black" stroke-width="0.5"/>
<path d="M4713 54.3111L4713.68 25.3778L4722.62 26.6571L4724.28 39.254H4728.75L4730.21 26.6571L4738.96 24L4741 55L4728.75 54.3111L4730.21 42.9937H4724.28L4721.36 54.3111H4713Z" fill="#82A985" stroke="black" stroke-width="0.5"/>
<path d="M4684.33 24.0827L4680.82 31.3258C4680.82 31.3258 4679.62 33.3302 4679.23 34.7943C4678.34 38.1365 4680.29 43.6696 4680.29 43.6696L4682.05 51.4227L4688.2 54.0751C4688.2 54.0751 4694.21 56.1562 4697.26 54.0751C4699.3 52.6833 4701.13 48.6683 4701.13 48.6683L4703.33 41.8333L4705 33.162C4705 33.162 4701.17 26.1569 4697.26 24.0827C4692.67 21.6466 4684.33 24.0827 4684.33 24.0827Z" fill="#82A985" stroke="black" stroke-width="0.5"/>
<path d="M4593.81 23L4599.04 31.072L4593.81 34.406L4589.93 31.7739H4584.88L4582.98 41.1619L4591.37 45.8998L4597.96 41.1619L4604 44.9347L4596.69 53.9718C4596.69 53.9718 4579.77 54.8003 4575.31 47.4791C4571.18 40.6942 4578.11 27.4747 4578.11 27.4747L4593.81 23Z" fill="#82A985" stroke="black" stroke-width="0.5"/>
<path d="M4922.85 25C4922.85 25 4925.31 45.2854 4917.09 47.1667C4915.15 47.6112 4912 47.1667 4912 47.1667L4911 55H4915.08V51.5L4941.59 52.4167V55H4945V48.75L4939.65 47.1667L4933.15 25H4922.85Z" fill="#82A985" stroke="black" stroke-width="0.5"/>
<path d="M4844 24L4846.67 52.8275L4869 55L4867.17 48.0647L4853.42 49.2345V42.5499L4858.83 41.4636V37.8706L4852.17 39.7089L4851.25 33.2749H4866.17L4869 26.1725L4844 24Z" fill="#82A985" stroke="black" stroke-width="0.5"/>
<path d="M4877 55.2889L4877.7 25.4222L4886.97 26.7429L4888.68 39.746H4893.31L4894.82 26.7429L4903.89 24L4906 56L4893.31 55.2889L4894.82 43.6063H4888.68L4885.66 55.2889H4877Z" fill="#82A985" stroke="black" stroke-width="0.5"/>
<path d="M4812.33 25.3881H4801.68L4813.25 42.199L4799 55H4808.5L4819.3 42.199L4821.45 55L4834.01 53.1493L4825.35 38.9602L4836 24H4829.57L4819.3 33.3308L4812.33 25.3881Z" fill="#82A985" stroke="black" stroke-width="0.5"/>
<path d="M4309 54L4310.75 24.6822L4322.63 23L4333 27.0853L4330.44 33.9341L4326.36 36.6977L4320.65 39.1008H4333V44.0271V54H4309Z" fill="#82A985" stroke="black" stroke-width="0.5"/>
<path d="M4446 53.8289V27.2378L4452.16 24L4453.38 40.8778L4467.32 41.4289L4467.92 46.1822V52.52L4459.6 55L4446 53.8289Z" fill="#82A985"/>
<path d="M4472.86 53.8289L4471.98 24.6889H4476.45L4482 53.8289H4472.86Z" fill="#82A985"/>
<path d="M4446 53.8289V27.2378L4452.16 24L4453.38 40.8778L4467.32 41.4289L4467.92 46.1822V52.52L4459.6 55L4446 53.8289Z" stroke="black" stroke-width="0.5"/>
<path d="M4472.86 53.8289L4471.98 24.6889H4476.45L4482 53.8289H4472.86Z" stroke="black" stroke-width="0.5"/>
<path d="M4340 24L4342.67 52.8275L4365 55L4363.17 48.0647L4349.42 49.2345V42.5499L4354.83 41.4636V37.8706L4348.17 39.7089L4347.25 33.2749H4362.17L4365 26.1725L4340 24Z" fill="#82A985" stroke="black" stroke-width="0.5"/>
<path d="M4260.38 26.2259L4253.85 57.0004L4246.18 52.9239L4248.34 38.659L4237.83 31.3087L4240.71 25.8982L4250.53 34.5365L4254.03 22.8504L4260.38 26.2259Z" fill="#82A985" stroke="black" stroke-width="0.5"/>
<path d="M4266 54V26.21L4274.43 23.7234V31.912L4288.47 21L4294.55 26.21L4276.3 37.1311L4299 44.5727V54L4274.43 46.8043V54H4266Z" fill="#82A985" stroke="black" stroke-width="0.5"/>
<path d="M4513.24 24.9814L4526.97 53.9531L4527.65 55.3809H4514.56L4514.34 54.6924L4511.81 46.9561L4499.94 55.2021L4499.68 55.3809H4491.04L4490.96 54.4658L4488.69 27.7676L4488.6 26.6836H4496.12L4496.3 27.4482L4500.05 42.9902L4507.15 39.4717L4505.87 25.501L4505.77 24.4092H4512.97L4513.24 24.9814ZM4506.99 22.1416L4504.21 24.415L4503.94 24.6416H4498.74L4498.46 24.3955L4495.85 22.1211L4493.83 20.3672H4509.16L4506.99 22.1416Z" fill="#82A985"/>
<path d="M4513.24 24.9814L4513.47 24.8744L4513.47 24.8743L4513.24 24.9814ZM4526.97 53.9531L4526.75 54.0602L4526.75 54.0602L4526.97 53.9531ZM4527.65 55.3809V55.6309H4528.04L4527.87 55.2738L4527.65 55.3809ZM4514.56 55.3809L4514.32 55.4587L4514.38 55.6309H4514.56V55.3809ZM4514.34 54.6924L4514.1 54.7701L4514.1 54.7702L4514.34 54.6924ZM4511.81 46.9561L4512.04 46.8783L4511.94 46.5591L4511.66 46.7508L4511.81 46.9561ZM4499.94 55.2021L4499.8 54.9969L4499.8 54.9969L4499.94 55.2021ZM4499.68 55.3809V55.6309H4499.76L4499.83 55.5861L4499.68 55.3809ZM4491.04 55.3809L4490.79 55.4021L4490.81 55.6309H4491.04V55.3809ZM4490.96 54.4658L4490.71 54.487L4490.71 54.4871L4490.96 54.4658ZM4488.69 27.7676L4488.94 27.7464L4488.94 27.7463L4488.69 27.7676ZM4488.6 26.6836V26.4336H4488.32L4488.35 26.7049L4488.6 26.6836ZM4496.12 26.6836L4496.36 26.6249L4496.31 26.4336H4496.12V26.6836ZM4496.3 27.4482L4496.54 27.3896L4496.54 27.3896L4496.3 27.4482ZM4500.05 42.9902L4499.8 43.0488L4499.88 43.3532L4500.16 43.2143L4500.05 42.9902ZM4507.15 39.4717L4507.27 39.6957L4507.42 39.6196L4507.4 39.4488L4507.15 39.4717ZM4505.87 25.501L4506.12 25.4781L4506.12 25.478L4505.87 25.501ZM4505.77 24.4092V24.1592H4505.5L4505.52 24.4321L4505.77 24.4092ZM4512.97 24.4092L4513.2 24.302L4513.13 24.1592H4512.97V24.4092ZM4506.99 22.1416L4507.15 22.3351L4507.15 22.3351L4506.99 22.1416ZM4504.21 24.415L4504.06 24.2215L4504.06 24.2217L4504.21 24.415ZM4503.94 24.6416V24.8916H4504.03L4504.1 24.8349L4503.94 24.6416ZM4498.74 24.6416L4498.58 24.83L4498.65 24.8916H4498.74V24.6416ZM4498.46 24.3955L4498.62 24.2071L4498.62 24.207L4498.46 24.3955ZM4495.85 22.1211L4495.68 22.3096L4495.68 22.3096L4495.85 22.1211ZM4493.83 20.3672V20.1172H4493.17L4493.67 20.5557L4493.83 20.3672ZM4509.16 20.3672L4509.32 20.5606L4509.86 20.1172H4509.16V20.3672ZM4513.24 24.9814L4513.02 25.0885L4526.75 54.0602L4526.97 53.9531L4527.2 53.8461L4513.47 24.8744L4513.24 24.9814ZM4526.97 53.9531L4526.75 54.0602L4527.42 55.4879L4527.65 55.3809L4527.87 55.2738L4527.2 53.846L4526.97 53.9531ZM4527.65 55.3809V55.1309H4514.56V55.3809V55.6309H4527.65V55.3809ZM4514.56 55.3809L4514.8 55.303L4514.57 54.6145L4514.34 54.6924L4514.1 54.7702L4514.32 55.4587L4514.56 55.3809ZM4514.34 54.6924L4514.57 54.6147L4512.04 46.8783L4511.81 46.9561L4511.57 47.0338L4514.1 54.7701L4514.34 54.6924ZM4511.81 46.9561L4511.66 46.7508L4499.8 54.9969L4499.94 55.2021L4500.08 55.4074L4511.95 47.1614L4511.81 46.9561ZM4499.94 55.2021L4499.8 54.9969L4499.54 55.1756L4499.68 55.3809L4499.83 55.5861L4500.08 55.4074L4499.94 55.2021ZM4499.68 55.3809V55.1309H4491.04V55.3809V55.6309H4499.68V55.3809ZM4491.04 55.3809L4491.29 55.3596L4491.21 54.4446L4490.96 54.4658L4490.71 54.4871L4490.79 55.4021L4491.04 55.3809ZM4490.96 54.4658L4491.21 54.4446L4488.94 27.7464L4488.69 27.7676L4488.44 27.7888L4490.71 54.487L4490.96 54.4658ZM4488.69 27.7676L4488.94 27.7463L4488.84 26.6623L4488.6 26.6836L4488.35 26.7049L4488.44 27.7889L4488.69 27.7676ZM4488.6 26.6836V26.9336H4496.12V26.6836V26.4336H4488.6V26.6836ZM4496.12 26.6836L4495.87 26.7423L4496.06 27.5069L4496.3 27.4482L4496.54 27.3896L4496.36 26.6249L4496.12 26.6836ZM4496.3 27.4482L4496.06 27.5069L4499.8 43.0488L4500.05 42.9902L4500.29 42.9316L4496.54 27.3896L4496.3 27.4482ZM4500.05 42.9902L4500.16 43.2143L4507.27 39.6957L4507.15 39.4717L4507.04 39.2476L4499.94 42.7662L4500.05 42.9902ZM4507.15 39.4717L4507.4 39.4488L4506.12 25.4781L4505.87 25.501L4505.62 25.5239L4506.91 39.4946L4507.15 39.4717ZM4505.87 25.501L4506.12 25.478L4506.02 24.3862L4505.77 24.4092L4505.52 24.4321L4505.62 25.5239L4505.87 25.501ZM4505.77 24.4092V24.6592H4512.97V24.4092V24.1592H4505.77V24.4092ZM4512.97 24.4092L4512.75 24.5163L4513.02 25.0886L4513.24 24.9814L4513.47 24.8743L4513.2 24.302L4512.97 24.4092ZM4506.99 22.1416L4506.83 21.9481L4504.06 24.2215L4504.21 24.415L4504.37 24.6085L4507.15 22.3351L4506.99 22.1416ZM4504.21 24.415L4504.06 24.2217L4503.78 24.4483L4503.94 24.6416L4504.1 24.8349L4504.37 24.6084L4504.21 24.415ZM4503.94 24.6416V24.3916H4498.74V24.6416V24.8916H4503.94V24.6416ZM4498.74 24.6416L4498.91 24.4532L4498.62 24.2071L4498.46 24.3955L4498.3 24.5839L4498.58 24.83L4498.74 24.6416ZM4498.46 24.3955L4498.62 24.207L4496.01 21.9326L4495.85 22.1211L4495.68 22.3096L4498.3 24.584L4498.46 24.3955ZM4495.85 22.1211L4496.01 21.9326L4494 20.1787L4493.83 20.3672L4493.67 20.5557L4495.68 22.3096L4495.85 22.1211ZM4493.83 20.3672V20.6172H4509.16V20.3672V20.1172H4493.83V20.3672ZM4509.16 20.3672L4509 20.1737L4506.83 21.9481L4506.99 22.1416L4507.15 22.3351L4509.32 20.5606L4509.16 20.3672Z" fill="black"/>
<path d="M4373 54.3111L4373.7 25.3778L4382.97 26.6571L4384.68 39.254H4389.31L4390.82 26.6571L4399.89 24L4402 55L4389.31 54.3111L4390.82 42.9937H4384.68L4381.66 54.3111H4373Z" fill="#82A985" stroke="black" stroke-width="0.5"/>
<path d="M4409 54.3111L4409.7 25.3778L4418.97 26.6571L4420.68 39.254H4425.31L4426.82 26.6571L4435.89 24L4438 55L4425.31 54.3111L4426.82 42.9937H4420.68L4417.66 54.3111H4409Z" fill="#82A985" stroke="black" stroke-width="0.5"/>
<path d="M4205 24L4207.04 52.4672L4224.7 54L4235 51.4818L4232.51 38.6715L4228.21 37.6861C4228.21 37.6861 4219.26 43.0995 4214.74 40.7518C4210.21 38.4042 4209.64 29.0365 4209.64 29.0365L4232.51 32.5401V25.7518L4205 24Z" fill="#82A985" stroke="black" stroke-width="0.5"/>
<path d="M4794.72 35H4780V41.1277L4797 43L4794.72 35Z" fill="#82A985" stroke="black" stroke-width="0.5"/>
<path d="M3925.85 22C3925.85 22 3928.31 42.9616 3920.09 44.9056C3918.15 45.3649 3915 44.9056 3915 44.9056L3914 53H3918.08V49.3833L3944.59 50.3306V53H3948V46.5417L3942.65 44.9056L3936.15 22H3925.85Z" fill="#82A985" stroke="black" stroke-width="0.5"/>
<path d="M3774 22L3776.67 50.8275L3799 53L3797.17 46.0647L3783.42 47.2345V40.5499L3788.83 39.4636V35.8706L3782.17 37.7089L3781.25 31.2749H3796.17L3799 24.1725L3774 22Z" fill="#82A985" stroke="black" stroke-width="0.5"/>
<path d="M3806 52V24.21L3814.43 21.7234V29.912L3828.47 19L3834.55 24.21L3816.3 35.1311L3839 42.5727V52L3814.43 44.8043V52H3806Z" fill="#82A985" stroke="black" stroke-width="0.5"/>
<path d="M3881 52.3111L3881.68 23.3778L3890.62 24.6571L3892.28 37.254H3896.75L3898.21 24.6571L3906.96 22L3909 53L3896.75 52.3111L3898.21 40.9937H3892.28L3889.36 52.3111H3881Z" fill="#82A985" stroke="black" stroke-width="0.5"/>
<path d="M3852.33 22.0827L3848.82 29.3258C3848.82 29.3258 3847.62 31.3302 3847.23 32.7943C3846.34 36.1365 3848.29 41.6696 3848.29 41.6696L3850.05 49.4227L3856.2 52.0751C3856.2 52.0751 3862.21 54.1562 3865.26 52.0751C3867.3 50.6833 3869.13 46.6683 3869.13 46.6683L3871.33 39.8333L3873 31.162C3873 31.162 3869.17 24.1569 3865.26 22.0827C3860.67 19.6466 3852.33 22.0827 3852.33 22.0827Z" fill="#82A985" stroke="black" stroke-width="0.5"/>
<path d="M3761.81 21L3767.04 29.072L3761.81 32.406L3757.93 29.7739H3752.88L3750.98 39.1619L3759.37 43.8998L3765.96 39.1619L3772 42.9347L3764.69 51.9718C3764.69 51.9718 3747.77 52.8003 3743.31 45.4791C3739.18 38.6942 3746.11 25.4747 3746.11 25.4747L3761.81 21Z" fill="#82A985" stroke="black" stroke-width="0.5"/>
<path d="M4090.85 23C4090.85 23 4093.31 43.2854 4085.09 45.1667C4083.15 45.6112 4080 45.1667 4080 45.1667L4079 53H4083.08V49.5L4109.59 50.4167V53H4113V46.75L4107.65 45.1667L4101.15 23H4090.85Z" fill="#82A985" stroke="black" stroke-width="0.5"/>
<path d="M4012 22L4014.67 50.8275L4037 53L4035.17 46.0647L4021.42 47.2345V40.5499L4026.83 39.4636V35.8706L4020.17 37.7089L4019.25 31.2749H4034.17L4037 24.1725L4012 22Z" fill="#82A985" stroke="black" stroke-width="0.5"/>
<path d="M4045 53.2889L4045.7 23.4222L4054.97 24.7429L4056.68 37.746H4061.31L4062.82 24.7429L4071.89 22L4074 54L4061.31 53.2889L4062.82 41.6063H4056.68L4053.66 53.2889H4045Z" fill="#82A985" stroke="black" stroke-width="0.5"/>
<path d="M3980.33 23.3881H3969.68L3981.25 40.199L3967 53H3976.5L3987.3 40.199L3989.45 53L4002.01 51.1493L3993.35 36.9602L4004 22H3997.57L3987.3 31.3308L3980.33 23.3881Z" fill="#82A985" stroke="black" stroke-width="0.5"/>
<path d="M3477 52L3478.75 22.6822L3490.63 21L3501 25.0853L3498.44 31.9341L3494.36 34.6977L3488.65 37.1008H3501V42.0271V52H3477Z" fill="#82A985" stroke="black" stroke-width="0.5"/>
<path d="M3614 51.8289V25.2378L3620.16 22L3621.38 38.8778L3635.32 39.4289L3635.92 44.1822V50.52L3627.6 53L3614 51.8289Z" fill="#82A985"/>
<path d="M3640.86 51.8289L3639.98 22.6889H3644.45L3650 51.8289H3640.86Z" fill="#82A985"/>
<path d="M3614 51.8289V25.2378L3620.16 22L3621.38 38.8778L3635.32 39.4289L3635.92 44.1822V50.52L3627.6 53L3614 51.8289Z" stroke="black" stroke-width="0.5"/>
<path d="M3640.86 51.8289L3639.98 22.6889H3644.45L3650 51.8289H3640.86Z" stroke="black" stroke-width="0.5"/>
<path d="M3508 22L3510.67 50.8275L3533 53L3531.17 46.0647L3517.42 47.2345V40.5499L3522.83 39.4636V35.8706L3516.17 37.7089L3515.25 31.2749H3530.17L3533 24.1725L3508 22Z" fill="#82A985" stroke="black" stroke-width="0.5"/>
<path d="M3428.38 24.2259L3421.85 55.0004L3414.18 50.9239L3416.34 36.659L3405.83 29.3087L3408.71 23.8982L3418.53 32.5365L3422.03 20.8504L3428.38 24.2259Z" fill="#82A985" stroke="black" stroke-width="0.5"/>
<path d="M3434 52V24.21L3442.43 21.7234V29.912L3456.47 19L3462.55 24.21L3444.3 35.1311L3467 42.5727V52L3442.43 44.8043V52H3434Z" fill="#82A985" stroke="black" stroke-width="0.5"/>
<path d="M3681.24 22.9814L3694.97 51.9531L3695.65 53.3809H3682.56L3682.34 52.6924L3679.81 44.9561L3667.94 53.2021L3667.68 53.3809H3659.04L3658.96 52.4658L3656.69 25.7676L3656.6 24.6836H3664.12L3664.3 25.4482L3668.05 40.9902L3675.15 37.4717L3673.87 23.501L3673.77 22.4092H3680.97L3681.24 22.9814ZM3674.99 20.1416L3672.21 22.415L3671.94 22.6416H3666.74L3666.46 22.3955L3663.85 20.1211L3661.83 18.3672H3677.16L3674.99 20.1416Z" fill="#82A985"/>
<path d="M3681.24 22.9814L3681.47 22.8744L3681.47 22.8743L3681.24 22.9814ZM3694.97 51.9531L3694.75 52.0602L3694.75 52.0602L3694.97 51.9531ZM3695.65 53.3809V53.6309H3696.04L3695.87 53.2738L3695.65 53.3809ZM3682.56 53.3809L3682.32 53.4587L3682.38 53.6309H3682.56V53.3809ZM3682.34 52.6924L3682.1 52.7701L3682.1 52.7702L3682.34 52.6924ZM3679.81 44.9561L3680.04 44.8783L3679.94 44.5591L3679.66 44.7508L3679.81 44.9561ZM3667.94 53.2021L3667.8 52.9969L3667.8 52.9969L3667.94 53.2021ZM3667.68 53.3809V53.6309H3667.76L3667.83 53.5861L3667.68 53.3809ZM3659.04 53.3809L3658.79 53.4021L3658.81 53.6309H3659.04V53.3809ZM3658.96 52.4658L3658.71 52.487L3658.71 52.4871L3658.96 52.4658ZM3656.69 25.7676L3656.94 25.7464L3656.94 25.7463L3656.69 25.7676ZM3656.6 24.6836V24.4336H3656.32L3656.35 24.7049L3656.6 24.6836ZM3664.12 24.6836L3664.36 24.6249L3664.31 24.4336H3664.12V24.6836ZM3664.3 25.4482L3664.54 25.3896L3664.54 25.3896L3664.3 25.4482ZM3668.05 40.9902L3667.8 41.0488L3667.88 41.3532L3668.16 41.2143L3668.05 40.9902ZM3675.15 37.4717L3675.27 37.6957L3675.42 37.6196L3675.4 37.4488L3675.15 37.4717ZM3673.87 23.501L3674.12 23.4781L3674.12 23.478L3673.87 23.501ZM3673.77 22.4092V22.1592H3673.5L3673.52 22.4321L3673.77 22.4092ZM3680.97 22.4092L3681.2 22.302L3681.13 22.1592H3680.97V22.4092ZM3674.99 20.1416L3675.15 20.3351L3675.15 20.3351L3674.99 20.1416ZM3672.21 22.415L3672.06 22.2215L3672.06 22.2217L3672.21 22.415ZM3671.94 22.6416V22.8916H3672.03L3672.1 22.8349L3671.94 22.6416ZM3666.74 22.6416L3666.58 22.83L3666.65 22.8916H3666.74V22.6416ZM3666.46 22.3955L3666.62 22.2071L3666.62 22.207L3666.46 22.3955ZM3663.85 20.1211L3663.68 20.3096L3663.68 20.3096L3663.85 20.1211ZM3661.83 18.3672V18.1172H3661.17L3661.67 18.5557L3661.83 18.3672ZM3677.16 18.3672L3677.32 18.5606L3677.86 18.1172H3677.16V18.3672ZM3681.24 22.9814L3681.02 23.0885L3694.75 52.0602L3694.97 51.9531L3695.2 51.8461L3681.47 22.8744L3681.24 22.9814ZM3694.97 51.9531L3694.75 52.0602L3695.42 53.4879L3695.65 53.3809L3695.87 53.2738L3695.2 51.846L3694.97 51.9531ZM3695.65 53.3809V53.1309H3682.56V53.3809V53.6309H3695.65V53.3809ZM3682.56 53.3809L3682.8 53.303L3682.57 52.6145L3682.34 52.6924L3682.1 52.7702L3682.32 53.4587L3682.56 53.3809ZM3682.34 52.6924L3682.57 52.6147L3680.04 44.8783L3679.81 44.9561L3679.57 45.0338L3682.1 52.7701L3682.34 52.6924ZM3679.81 44.9561L3679.66 44.7508L3667.8 52.9969L3667.94 53.2021L3668.08 53.4074L3679.95 45.1614L3679.81 44.9561ZM3667.94 53.2021L3667.8 52.9969L3667.54 53.1756L3667.68 53.3809L3667.83 53.5861L3668.08 53.4074L3667.94 53.2021ZM3667.68 53.3809V53.1309H3659.04V53.3809V53.6309H3667.68V53.3809ZM3659.04 53.3809L3659.29 53.3596L3659.21 52.4446L3658.96 52.4658L3658.71 52.4871L3658.79 53.4021L3659.04 53.3809ZM3658.96 52.4658L3659.21 52.4446L3656.94 25.7464L3656.69 25.7676L3656.44 25.7888L3658.71 52.487L3658.96 52.4658ZM3656.69 25.7676L3656.94 25.7463L3656.84 24.6623L3656.6 24.6836L3656.35 24.7049L3656.44 25.7889L3656.69 25.7676ZM3656.6 24.6836V24.9336H3664.12V24.6836V24.4336H3656.6V24.6836ZM3664.12 24.6836L3663.87 24.7423L3664.06 25.5069L3664.3 25.4482L3664.54 25.3896L3664.36 24.6249L3664.12 24.6836ZM3664.3 25.4482L3664.06 25.5069L3667.8 41.0488L3668.05 40.9902L3668.29 40.9316L3664.54 25.3896L3664.3 25.4482ZM3668.05 40.9902L3668.16 41.2143L3675.27 37.6957L3675.15 37.4717L3675.04 37.2476L3667.94 40.7662L3668.05 40.9902ZM3675.15 37.4717L3675.4 37.4488L3674.12 23.4781L3673.87 23.501L3673.62 23.5239L3674.91 37.4946L3675.15 37.4717ZM3673.87 23.501L3674.12 23.478L3674.02 22.3862L3673.77 22.4092L3673.52 22.4321L3673.62 23.5239L3673.87 23.501ZM3673.77 22.4092V22.6592H3680.97V22.4092V22.1592H3673.77V22.4092ZM3680.97 22.4092L3680.75 22.5163L3681.02 23.0886L3681.24 22.9814L3681.47 22.8743L3681.2 22.302L3680.97 22.4092ZM3674.99 20.1416L3674.83 19.9481L3672.06 22.2215L3672.21 22.415L3672.37 22.6085L3675.15 20.3351L3674.99 20.1416ZM3672.21 22.415L3672.06 22.2217L3671.78 22.4483L3671.94 22.6416L3672.1 22.8349L3672.37 22.6084L3672.21 22.415ZM3671.94 22.6416V22.3916H3666.74V22.6416V22.8916H3671.94V22.6416ZM3666.74 22.6416L3666.91 22.4532L3666.62 22.2071L3666.46 22.3955L3666.3 22.5839L3666.58 22.83L3666.74 22.6416ZM3666.46 22.3955L3666.62 22.207L3664.01 19.9326L3663.85 20.1211L3663.68 20.3096L3666.3 22.584L3666.46 22.3955ZM3663.85 20.1211L3664.01 19.9326L3662 18.1787L3661.83 18.3672L3661.67 18.5557L3663.68 20.3096L3663.85 20.1211ZM3661.83 18.3672V18.6172H3677.16V18.3672V18.1172H3661.83V18.3672ZM3677.16 18.3672L3677 18.1737L3674.83 19.9481L3674.99 20.1416L3675.15 20.3351L3677.32 18.5606L3677.16 18.3672Z" fill="black"/>
<path d="M3541 52.3111L3541.7 23.3778L3550.97 24.6571L3552.68 37.254H3557.31L3558.82 24.6571L3567.89 22L3570 53L3557.31 52.3111L3558.82 40.9937H3552.68L3549.66 52.3111H3541Z" fill="#82A985" stroke="black" stroke-width="0.5"/>
<path d="M3577 52.3111L3577.7 23.3778L3586.97 24.6571L3588.68 37.254H3593.31L3594.82 24.6571L3603.89 22L3606 53L3593.31 52.3111L3594.82 40.9937H3588.68L3585.66 52.3111H3577Z" fill="#82A985" stroke="black" stroke-width="0.5"/>
<path d="M3373 22L3375.04 50.4672L3392.7 52L3403 49.4818L3400.51 36.6715L3396.21 35.6861C3396.21 35.6861 3387.26 41.0995 3382.74 38.7518C3378.21 36.4042 3377.64 27.0365 3377.64 27.0365L3400.51 30.5401V23.7518L3373 22Z" fill="#82A985" stroke="black" stroke-width="0.5"/>
<path d="M3962.72 33H3948V39.1277L3965 41L3962.72 33Z" fill="#82A985" stroke="black" stroke-width="0.5"/>
<rect x="5017" width="2530" height="69" fill="#2C3872"/>
<path d="M5595.85 21C5595.85 21 5598.31 41.9616 5590.09 43.9056C5588.15 44.3649 5585 43.9056 5585 43.9056L5584 52H5588.08V48.3833L5614.59 49.3306V52H5618V45.5417L5612.65 43.9056L5606.15 21H5595.85Z" fill="#82A985" stroke="black" stroke-width="0.5"/>
<path d="M5444 21L5446.67 49.8275L5469 52L5467.17 45.0647L5453.42 46.2345V39.5499L5458.83 38.4636V34.8706L5452.17 36.7089L5451.25 30.2749H5466.17L5469 23.1725L5444 21Z" fill="#82A985" stroke="black" stroke-width="0.5"/>
<path d="M5476 51V23.21L5484.43 20.7234V28.912L5498.47 18L5504.55 23.21L5486.3 34.1311L5509 41.5727V51L5484.43 43.8043V51H5476Z" fill="#82A985" stroke="black" stroke-width="0.5"/>
<path d="M5551 51.3111L5551.68 22.3778L5560.62 23.6571L5562.28 36.254H5566.75L5568.21 23.6571L5576.96 21L5579 52L5566.75 51.3111L5568.21 39.9937H5562.28L5559.36 51.3111H5551Z" fill="#82A985" stroke="black" stroke-width="0.5"/>
<path d="M5522.33 21.0827L5518.82 28.3258C5518.82 28.3258 5517.62 30.3302 5517.23 31.7943C5516.34 35.1365 5518.29 40.6696 5518.29 40.6696L5520.05 48.4227L5526.2 51.0751C5526.2 51.0751 5532.21 53.1562 5535.26 51.0751C5537.3 49.6833 5539.13 45.6683 5539.13 45.6683L5541.33 38.8333L5543 30.162C5543 30.162 5539.17 23.1569 5535.26 21.0827C5530.67 18.6466 5522.33 21.0827 5522.33 21.0827Z" fill="#82A985" stroke="black" stroke-width="0.5"/>
<path d="M5431.81 20L5437.04 28.072L5431.81 31.406L5427.93 28.7739H5422.88L5420.98 38.1619L5429.37 42.8998L5435.96 38.1619L5442 41.9347L5434.69 50.9718C5434.69 50.9718 5417.77 51.8003 5413.31 44.4791C5409.18 37.6942 5416.11 24.4747 5416.11 24.4747L5431.81 20Z" fill="#82A985" stroke="black" stroke-width="0.5"/>
<path d="M5760.85 22C5760.85 22 5763.31 42.2854 5755.09 44.1667C5753.15 44.6112 5750 44.1667 5750 44.1667L5749 52H5753.08V48.5L5779.59 49.4167V52H5783V45.75L5777.65 44.1667L5771.15 22H5760.85Z" fill="#82A985" stroke="black" stroke-width="0.5"/>
<path d="M5682 21L5684.67 49.8275L5707 52L5705.17 45.0647L5691.42 46.2345V39.5499L5696.83 38.4636V34.8706L5690.17 36.7089L5689.25 30.2749H5704.17L5707 23.1725L5682 21Z" fill="#82A985" stroke="black" stroke-width="0.5"/>
<path d="M5715 52.2889L5715.7 22.4222L5724.97 23.7429L5726.68 36.746H5731.31L5732.82 23.7429L5741.89 21L5744 53L5731.31 52.2889L5732.82 40.6063H5726.68L5723.66 52.2889H5715Z" fill="#82A985" stroke="black" stroke-width="0.5"/>
<path d="M5650.33 22.3881H5639.68L5651.25 39.199L5637 52H5646.5L5657.3 39.199L5659.45 52L5672.01 50.1493L5663.35 35.9602L5674 21H5667.57L5657.3 30.3308L5650.33 22.3881Z" fill="#82A985" stroke="black" stroke-width="0.5"/>
<path d="M5147 51L5148.75 21.6822L5160.63 20L5171 24.0853L5168.44 30.9341L5164.36 33.6977L5158.65 36.1008H5171V41.0271V51H5147Z" fill="#82A985" stroke="black" stroke-width="0.5"/>
<path d="M5284 50.8289V24.2378L5290.16 21L5291.38 37.8778L5305.32 38.4289L5305.92 43.1822V49.52L5297.6 52L5284 50.8289Z" fill="#82A985"/>
<path d="M5310.86 50.8289L5309.98 21.6889H5314.45L5320 50.8289H5310.86Z" fill="#82A985"/>
<path d="M5284 50.8289V24.2378L5290.16 21L5291.38 37.8778L5305.32 38.4289L5305.92 43.1822V49.52L5297.6 52L5284 50.8289Z" stroke="black" stroke-width="0.5"/>
<path d="M5310.86 50.8289L5309.98 21.6889H5314.45L5320 50.8289H5310.86Z" stroke="black" stroke-width="0.5"/>
<path d="M5178 21L5180.67 49.8275L5203 52L5201.17 45.0647L5187.42 46.2345V39.5499L5192.83 38.4636V34.8706L5186.17 36.7089L5185.25 30.2749H5200.17L5203 23.1725L5178 21Z" fill="#82A985" stroke="black" stroke-width="0.5"/>
<path d="M5098.38 23.2259L5091.85 54.0004L5084.18 49.9239L5086.34 35.659L5075.83 28.3087L5078.71 22.8982L5088.53 31.5365L5092.03 19.8504L5098.38 23.2259Z" fill="#82A985" stroke="black" stroke-width="0.5"/>
<path d="M5104 51V23.21L5112.43 20.7234V28.912L5126.47 18L5132.55 23.21L5114.3 34.1311L5137 41.5727V51L5112.43 43.8043V51H5104Z" fill="#82A985" stroke="black" stroke-width="0.5"/>
<path d="M5351.24 21.9814L5364.97 50.9531L5365.65 52.3809H5352.56L5352.34 51.6924L5349.81 43.9561L5337.94 52.2021L5337.68 52.3809H5329.04L5328.96 51.4658L5326.69 24.7676L5326.6 23.6836H5334.12L5334.3 24.4482L5338.05 39.9902L5345.15 36.4717L5343.87 22.501L5343.77 21.4092H5350.97L5351.24 21.9814ZM5344.99 19.1416L5342.21 21.415L5341.94 21.6416H5336.74L5336.46 21.3955L5333.85 19.1211L5331.83 17.3672H5347.16L5344.99 19.1416Z" fill="#82A985"/>
<path d="M5351.24 21.9814L5351.47 21.8744L5351.47 21.8743L5351.24 21.9814ZM5364.97 50.9531L5364.75 51.0602L5364.75 51.0602L5364.97 50.9531ZM5365.65 52.3809V52.6309H5366.04L5365.87 52.2738L5365.65 52.3809ZM5352.56 52.3809L5352.32 52.4587L5352.38 52.6309H5352.56V52.3809ZM5352.34 51.6924L5352.1 51.7701L5352.1 51.7702L5352.34 51.6924ZM5349.81 43.9561L5350.04 43.8783L5349.94 43.5591L5349.66 43.7508L5349.81 43.9561ZM5337.94 52.2021L5337.8 51.9969L5337.8 51.9969L5337.94 52.2021ZM5337.68 52.3809V52.6309H5337.76L5337.83 52.5861L5337.68 52.3809ZM5329.04 52.3809L5328.79 52.4021L5328.81 52.6309H5329.04V52.3809ZM5328.96 51.4658L5328.71 51.487L5328.71 51.4871L5328.96 51.4658ZM5326.69 24.7676L5326.94 24.7464L5326.94 24.7463L5326.69 24.7676ZM5326.6 23.6836V23.4336H5326.32L5326.35 23.7049L5326.6 23.6836ZM5334.12 23.6836L5334.36 23.6249L5334.31 23.4336H5334.12V23.6836ZM5334.3 24.4482L5334.54 24.3896L5334.54 24.3896L5334.3 24.4482ZM5338.05 39.9902L5337.8 40.0488L5337.88 40.3532L5338.16 40.2143L5338.05 39.9902ZM5345.15 36.4717L5345.27 36.6957L5345.42 36.6196L5345.4 36.4488L5345.15 36.4717ZM5343.87 22.501L5344.12 22.4781L5344.12 22.478L5343.87 22.501ZM5343.77 21.4092V21.1592H5343.5L5343.52 21.4321L5343.77 21.4092ZM5350.97 21.4092L5351.2 21.302L5351.13 21.1592H5350.97V21.4092ZM5344.99 19.1416L5345.15 19.3351L5345.15 19.3351L5344.99 19.1416ZM5342.21 21.415L5342.06 21.2215L5342.06 21.2217L5342.21 21.415ZM5341.94 21.6416V21.8916H5342.03L5342.1 21.8349L5341.94 21.6416ZM5336.74 21.6416L5336.58 21.83L5336.65 21.8916H5336.74V21.6416ZM5336.46 21.3955L5336.62 21.2071L5336.62 21.207L5336.46 21.3955ZM5333.85 19.1211L5333.68 19.3096L5333.68 19.3096L5333.85 19.1211ZM5331.83 17.3672V17.1172H5331.17L5331.67 17.5557L5331.83 17.3672ZM5347.16 17.3672L5347.32 17.5606L5347.86 17.1172H5347.16V17.3672ZM5351.24 21.9814L5351.02 22.0885L5364.75 51.0602L5364.97 50.9531L5365.2 50.8461L5351.47 21.8744L5351.24 21.9814ZM5364.97 50.9531L5364.75 51.0602L5365.42 52.4879L5365.65 52.3809L5365.87 52.2738L5365.2 50.846L5364.97 50.9531ZM5365.65 52.3809V52.1309H5352.56V52.3809V52.6309H5365.65V52.3809ZM5352.56 52.3809L5352.8 52.303L5352.57 51.6145L5352.34 51.6924L5352.1 51.7702L5352.32 52.4587L5352.56 52.3809ZM5352.34 51.6924L5352.57 51.6147L5350.04 43.8783L5349.81 43.9561L5349.57 44.0338L5352.1 51.7701L5352.34 51.6924ZM5349.81 43.9561L5349.66 43.7508L5337.8 51.9969L5337.94 52.2021L5338.08 52.4074L5349.95 44.1614L5349.81 43.9561ZM5337.94 52.2021L5337.8 51.9969L5337.54 52.1756L5337.68 52.3809L5337.83 52.5861L5338.08 52.4074L5337.94 52.2021ZM5337.68 52.3809V52.1309H5329.04V52.3809V52.6309H5337.68V52.3809ZM5329.04 52.3809L5329.29 52.3596L5329.21 51.4446L5328.96 51.4658L5328.71 51.4871L5328.79 52.4021L5329.04 52.3809ZM5328.96 51.4658L5329.21 51.4446L5326.94 24.7464L5326.69 24.7676L5326.44 24.7888L5328.71 51.487L5328.96 51.4658ZM5326.69 24.7676L5326.94 24.7463L5326.84 23.6623L5326.6 23.6836L5326.35 23.7049L5326.44 24.7889L5326.69 24.7676ZM5326.6 23.6836V23.9336H5334.12V23.6836V23.4336H5326.6V23.6836ZM5334.12 23.6836L5333.87 23.7423L5334.06 24.5069L5334.3 24.4482L5334.54 24.3896L5334.36 23.6249L5334.12 23.6836ZM5334.3 24.4482L5334.06 24.5069L5337.8 40.0488L5338.05 39.9902L5338.29 39.9316L5334.54 24.3896L5334.3 24.4482ZM5338.05 39.9902L5338.16 40.2143L5345.27 36.6957L5345.15 36.4717L5345.04 36.2476L5337.94 39.7662L5338.05 39.9902ZM5345.15 36.4717L5345.4 36.4488L5344.12 22.4781L5343.87 22.501L5343.62 22.5239L5344.91 36.4946L5345.15 36.4717ZM5343.87 22.501L5344.12 22.478L5344.02 21.3862L5343.77 21.4092L5343.52 21.4321L5343.62 22.5239L5343.87 22.501ZM5343.77 21.4092V21.6592H5350.97V21.4092V21.1592H5343.77V21.4092ZM5350.97 21.4092L5350.75 21.5163L5351.02 22.0886L5351.24 21.9814L5351.47 21.8743L5351.2 21.302L5350.97 21.4092ZM5344.99 19.1416L5344.83 18.9481L5342.06 21.2215L5342.21 21.415L5342.37 21.6085L5345.15 19.3351L5344.99 19.1416ZM5342.21 21.415L5342.06 21.2217L5341.78 21.4483L5341.94 21.6416L5342.1 21.8349L5342.37 21.6084L5342.21 21.415ZM5341.94 21.6416V21.3916H5336.74V21.6416V21.8916H5341.94V21.6416ZM5336.74 21.6416L5336.91 21.4532L5336.62 21.2071L5336.46 21.3955L5336.3 21.5839L5336.58 21.83L5336.74 21.6416ZM5336.46 21.3955L5336.62 21.207L5334.01 18.9326L5333.85 19.1211L5333.68 19.3096L5336.3 21.584L5336.46 21.3955ZM5333.85 19.1211L5334.01 18.9326L5332 17.1787L5331.83 17.3672L5331.67 17.5557L5333.68 19.3096L5333.85 19.1211ZM5331.83 17.3672V17.6172H5347.16V17.3672V17.1172H5331.83V17.3672ZM5347.16 17.3672L5347 17.1737L5344.83 18.9481L5344.99 19.1416L5345.15 19.3351L5347.32 17.5606L5347.16 17.3672Z" fill="black"/>
<path d="M5211 51.3111L5211.7 22.3778L5220.97 23.6571L5222.68 36.254H5227.31L5228.82 23.6571L5237.89 21L5240 52L5227.31 51.3111L5228.82 39.9937H5222.68L5219.66 51.3111H5211Z" fill="#82A985" stroke="black" stroke-width="0.5"/>
<path d="M5247 51.3111L5247.7 22.3778L5256.97 23.6571L5258.68 36.254H5263.31L5264.82 23.6571L5273.89 21L5276 52L5263.31 51.3111L5264.82 39.9937H5258.68L5255.66 51.3111H5247Z" fill="#82A985" stroke="black" stroke-width="0.5"/>
<path d="M5043 21L5045.04 49.4672L5062.7 51L5073 48.4818L5070.51 35.6715L5066.21 34.6861C5066.21 34.6861 5057.26 40.0995 5052.74 37.7518C5048.21 35.4042 5047.64 26.0365 5047.64 26.0365L5070.51 29.5401V22.7518L5043 21Z" fill="#82A985" stroke="black" stroke-width="0.5"/>
<path d="M5632.72 32H5618V38.1277L5635 40L5632.72 32Z" fill="#82A985" stroke="black" stroke-width="0.5"/>
<path d="M7259.85 24C7259.85 24 7262.31 44.9616 7254.09 46.9056C7252.15 47.3649 7249 46.9056 7249 46.9056L7248 55H7252.08V51.3833L7278.59 52.3306V55H7282V48.5417L7276.65 46.9056L7270.15 24H7259.85Z" fill="#82A985" stroke="black" stroke-width="0.5"/>
<path d="M7108 24L7110.67 52.8275L7133 55L7131.17 48.0647L7117.42 49.2345V42.5499L7122.83 41.4636V37.8706L7116.17 39.7089L7115.25 33.2749H7130.17L7133 26.1725L7108 24Z" fill="#82A985" stroke="black" stroke-width="0.5"/>
<path d="M7140 54V26.21L7148.43 23.7234V31.912L7162.47 21L7168.55 26.21L7150.3 37.1311L7173 44.5727V54L7148.43 46.8043V54H7140Z" fill="#82A985" stroke="black" stroke-width="0.5"/>
<path d="M7215 54.3111L7215.68 25.3778L7224.62 26.6571L7226.28 39.254H7230.75L7232.21 26.6571L7240.96 24L7243 55L7230.75 54.3111L7232.21 42.9937H7226.28L7223.36 54.3111H7215Z" fill="#82A985" stroke="black" stroke-width="0.5"/>
<path d="M7186.33 24.0827L7182.82 31.3258C7182.82 31.3258 7181.62 33.3302 7181.23 34.7943C7180.34 38.1365 7182.29 43.6696 7182.29 43.6696L7184.05 51.4227L7190.2 54.0751C7190.2 54.0751 7196.21 56.1562 7199.26 54.0751C7201.3 52.6833 7203.13 48.6683 7203.13 48.6683L7205.33 41.8333L7207 33.162C7207 33.162 7203.17 26.1569 7199.26 24.0827C7194.67 21.6466 7186.33 24.0827 7186.33 24.0827Z" fill="#82A985" stroke="black" stroke-width="0.5"/>
<path d="M7095.81 23L7101.04 31.072L7095.81 34.406L7091.93 31.7739H7086.88L7084.98 41.1619L7093.37 45.8998L7099.96 41.1619L7106 44.9347L7098.69 53.9718C7098.69 53.9718 7081.77 54.8003 7077.31 47.4791C7073.18 40.6942 7080.11 27.4747 7080.11 27.4747L7095.81 23Z" fill="#82A985" stroke="black" stroke-width="0.5"/>
<path d="M7424.85 25C7424.85 25 7427.31 45.2854 7419.09 47.1667C7417.15 47.6112 7414 47.1667 7414 47.1667L7413 55H7417.08V51.5L7443.59 52.4167V55H7447V48.75L7441.65 47.1667L7435.15 25H7424.85Z" fill="#82A985" stroke="black" stroke-width="0.5"/>
<path d="M7346 24L7348.67 52.8275L7371 55L7369.17 48.0647L7355.42 49.2345V42.5499L7360.83 41.4636V37.8706L7354.17 39.7089L7353.25 33.2749H7368.17L7371 26.1725L7346 24Z" fill="#82A985" stroke="black" stroke-width="0.5"/>
<path d="M7379 55.2889L7379.7 25.4222L7388.97 26.7429L7390.68 39.746H7395.31L7396.82 26.7429L7405.89 24L7408 56L7395.31 55.2889L7396.82 43.6063H7390.68L7387.66 55.2889H7379Z" fill="#82A985" stroke="black" stroke-width="0.5"/>
<path d="M7314.33 25.3881H7303.68L7315.25 42.199L7301 55H7310.5L7321.3 42.199L7323.45 55L7336.01 53.1493L7327.35 38.9602L7338 24H7331.57L7321.3 33.3308L7314.33 25.3881Z" fill="#82A985" stroke="black" stroke-width="0.5"/>
<path d="M6811 54L6812.75 24.6822L6824.63 23L6835 27.0853L6832.44 33.9341L6828.36 36.6977L6822.65 39.1008H6835V44.0271V54H6811Z" fill="#82A985" stroke="black" stroke-width="0.5"/>
<path d="M6948 53.8289V27.2378L6954.16 24L6955.38 40.8778L6969.32 41.4289L6969.92 46.1822V52.52L6961.6 55L6948 53.8289Z" fill="#82A985"/>
<path d="M6974.86 53.8289L6973.98 24.6889H6978.45L6984 53.8289H6974.86Z" fill="#82A985"/>
<path d="M6948 53.8289V27.2378L6954.16 24L6955.38 40.8778L6969.32 41.4289L6969.92 46.1822V52.52L6961.6 55L6948 53.8289Z" stroke="black" stroke-width="0.5"/>
<path d="M6974.86 53.8289L6973.98 24.6889H6978.45L6984 53.8289H6974.86Z" stroke="black" stroke-width="0.5"/>
<path d="M6842 24L6844.67 52.8275L6867 55L6865.17 48.0647L6851.42 49.2345V42.5499L6856.83 41.4636V37.8706L6850.17 39.7089L6849.25 33.2749H6864.17L6867 26.1725L6842 24Z" fill="#82A985" stroke="black" stroke-width="0.5"/>
<path d="M6762.38 26.2259L6755.85 57.0004L6748.18 52.9239L6750.34 38.659L6739.83 31.3087L6742.71 25.8982L6752.53 34.5365L6756.03 22.8504L6762.38 26.2259Z" fill="#82A985" stroke="black" stroke-width="0.5"/>
<path d="M6768 54V26.21L6776.43 23.7234V31.912L6790.47 21L6796.55 26.21L6778.3 37.1311L6801 44.5727V54L6776.43 46.8043V54H6768Z" fill="#82A985" stroke="black" stroke-width="0.5"/>
<path d="M7015.24 24.9814L7028.97 53.9531L7029.65 55.3809H7016.56L7016.33 54.6924L7013.8 46.9561L7001.94 55.2021L7001.68 55.3809H6993.04L6992.96 54.4658L6990.69 27.7676L6990.59 26.6836H6998.11L6998.3 27.4482L7002.05 42.9902L7009.15 39.4717L7007.87 25.501L7007.77 24.4092H7014.97L7015.24 24.9814ZM7008.99 22.1416L7006.21 24.415L7005.94 24.6416H7000.74L7000.46 24.3955L6997.85 22.1211L6995.83 20.3672H7011.16L7008.99 22.1416Z" fill="#82A985"/>
<path d="M7015.24 24.9814L7015.47 24.8744L7015.47 24.8743L7015.24 24.9814ZM7028.97 53.9531L7028.74 54.0602L7028.74 54.0602L7028.97 53.9531ZM7029.65 55.3809V55.6309H7030.04L7029.87 55.2738L7029.65 55.3809ZM7016.56 55.3809L7016.32 55.4587L7016.38 55.6309H7016.56V55.3809ZM7016.33 54.6924L7016.1 54.7701L7016.1 54.7702L7016.33 54.6924ZM7013.8 46.9561L7014.04 46.8783L7013.94 46.5591L7013.66 46.7508L7013.8 46.9561ZM7001.94 55.2021L7001.8 54.9969L7001.8 54.9969L7001.94 55.2021ZM7001.68 55.3809V55.6309H7001.76L7001.82 55.5861L7001.68 55.3809ZM6993.04 55.3809L6992.79 55.4021L6992.81 55.6309H6993.04V55.3809ZM6992.96 54.4658L6992.71 54.487L6992.71 54.4871L6992.96 54.4658ZM6990.69 27.7676L6990.94 27.7464L6990.94 27.7463L6990.69 27.7676ZM6990.59 26.6836V26.4336H6990.32L6990.34 26.7049L6990.59 26.6836ZM6998.11 26.6836L6998.36 26.6249L6998.31 26.4336H6998.11V26.6836ZM6998.3 27.4482L6998.54 27.3896L6998.54 27.3896L6998.3 27.4482ZM7002.05 42.9902L7001.8 43.0488L7001.88 43.3532L7002.16 43.2143L7002.05 42.9902ZM7009.15 39.4717L7009.26 39.6957L7009.42 39.6196L7009.4 39.4488L7009.15 39.4717ZM7007.87 25.501L7008.12 25.4781L7008.12 25.478L7007.87 25.501ZM7007.77 24.4092V24.1592H7007.49L7007.52 24.4321L7007.77 24.4092ZM7014.97 24.4092L7015.2 24.302L7015.13 24.1592H7014.97V24.4092ZM7008.99 22.1416L7009.15 22.3351L7009.15 22.3351L7008.99 22.1416ZM7006.21 24.415L7006.05 24.2215L7006.05 24.2217L7006.21 24.415ZM7005.94 24.6416V24.8916H7006.02L7006.09 24.8349L7005.94 24.6416ZM7000.74 24.6416L7000.58 24.83L7000.65 24.8916H7000.74V24.6416ZM7000.46 24.3955L7000.62 24.2071L7000.62 24.207L7000.46 24.3955ZM6997.85 22.1211L6997.68 22.3096L6997.68 22.3096L6997.85 22.1211ZM6995.83 20.3672V20.1172H6995.17L6995.67 20.5557L6995.83 20.3672ZM7011.16 20.3672L7011.32 20.5606L7011.86 20.1172H7011.16V20.3672ZM7015.24 24.9814L7015.02 25.0885L7028.74 54.0602L7028.97 53.9531L7029.2 53.8461L7015.47 24.8744L7015.24 24.9814ZM7028.97 53.9531L7028.74 54.0602L7029.42 55.4879L7029.65 55.3809L7029.87 55.2738L7029.2 53.846L7028.97 53.9531ZM7029.65 55.3809V55.1309H7016.56V55.3809V55.6309H7029.65V55.3809ZM7016.56 55.3809L7016.8 55.303L7016.57 54.6145L7016.33 54.6924L7016.1 54.7702L7016.32 55.4587L7016.56 55.3809ZM7016.33 54.6924L7016.57 54.6147L7014.04 46.8783L7013.8 46.9561L7013.57 47.0338L7016.1 54.7701L7016.33 54.6924ZM7013.8 46.9561L7013.66 46.7508L7001.8 54.9969L7001.94 55.2021L7002.08 55.4074L7013.95 47.1614L7013.8 46.9561ZM7001.94 55.2021L7001.8 54.9969L7001.54 55.1756L7001.68 55.3809L7001.82 55.5861L7002.08 55.4074L7001.94 55.2021ZM7001.68 55.3809V55.1309H6993.04V55.3809V55.6309H7001.68V55.3809ZM6993.04 55.3809L6993.29 55.3596L6993.21 54.4446L6992.96 54.4658L6992.71 54.4871L6992.79 55.4021L6993.04 55.3809ZM6992.96 54.4658L6993.21 54.4446L6990.94 27.7464L6990.69 27.7676L6990.44 27.7888L6992.71 54.487L6992.96 54.4658ZM6990.69 27.7676L6990.94 27.7463L6990.84 26.6623L6990.59 26.6836L6990.34 26.7049L6990.44 27.7889L6990.69 27.7676ZM6990.59 26.6836V26.9336H6998.11V26.6836V26.4336H6990.59V26.6836ZM6998.11 26.6836L6997.87 26.7423L6998.05 27.5069L6998.3 27.4482L6998.54 27.3896L6998.36 26.6249L6998.11 26.6836ZM6998.3 27.4482L6998.05 27.5069L7001.8 43.0488L7002.05 42.9902L7002.29 42.9316L6998.54 27.3896L6998.3 27.4482ZM7002.05 42.9902L7002.16 43.2143L7009.26 39.6957L7009.15 39.4717L7009.04 39.2476L7001.93 42.7662L7002.05 42.9902ZM7009.15 39.4717L7009.4 39.4488L7008.12 25.4781L7007.87 25.501L7007.62 25.5239L7008.9 39.4946L7009.15 39.4717ZM7007.87 25.501L7008.12 25.478L7008.02 24.3862L7007.77 24.4092L7007.52 24.4321L7007.62 25.5239L7007.87 25.501ZM7007.77 24.4092V24.6592H7014.97V24.4092V24.1592H7007.77V24.4092ZM7014.97 24.4092L7014.74 24.5163L7015.02 25.0886L7015.24 24.9814L7015.47 24.8743L7015.2 24.302L7014.97 24.4092ZM7008.99 22.1416L7008.83 21.9481L7006.05 24.2215L7006.21 24.415L7006.37 24.6085L7009.15 22.3351L7008.99 22.1416ZM7006.21 24.415L7006.05 24.2217L7005.78 24.4483L7005.94 24.6416L7006.09 24.8349L7006.37 24.6084L7006.21 24.415ZM7005.94 24.6416V24.3916H7000.74V24.6416V24.8916H7005.94V24.6416ZM7000.74 24.6416L7000.9 24.4532L7000.62 24.2071L7000.46 24.3955L7000.29 24.5839L7000.58 24.83L7000.74 24.6416ZM7000.46 24.3955L7000.62 24.207L6998.01 21.9326L6997.85 22.1211L6997.68 22.3096L7000.29 24.584L7000.46 24.3955ZM6997.85 22.1211L6998.01 21.9326L6996 20.1787L6995.83 20.3672L6995.67 20.5557L6997.68 22.3096L6997.85 22.1211ZM6995.83 20.3672V20.6172H7011.16V20.3672V20.1172H6995.83V20.3672ZM7011.16 20.3672L7011 20.1737L7008.83 21.9481L7008.99 22.1416L7009.15 22.3351L7011.32 20.5606L7011.16 20.3672Z" fill="black"/>
<path d="M6875 54.3111L6875.7 25.3778L6884.97 26.6571L6886.68 39.254H6891.31L6892.82 26.6571L6901.89 24L6904 55L6891.31 54.3111L6892.82 42.9937H6886.68L6883.66 54.3111H6875Z" fill="#82A985" stroke="black" stroke-width="0.5"/>
<path d="M6911 54.3111L6911.7 25.3778L6920.97 26.6571L6922.68 39.254H6927.31L6928.82 26.6571L6937.89 24L6940 55L6927.31 54.3111L6928.82 42.9937H6922.68L6919.66 54.3111H6911Z" fill="#82A985" stroke="black" stroke-width="0.5"/>
<path d="M6707 24L6709.04 52.4672L6726.7 54L6737 51.4818L6734.51 38.6715L6730.21 37.6861C6730.21 37.6861 6721.26 43.0995 6716.74 40.7518C6712.21 38.4042 6711.64 29.0365 6711.64 29.0365L6734.51 32.5401V25.7518L6707 24Z" fill="#82A985" stroke="black" stroke-width="0.5"/>
<path d="M7296.72 35H7282V41.1277L7299 43L7296.72 35Z" fill="#82A985" stroke="black" stroke-width="0.5"/>
<path d="M6427.85 22C6427.85 22 6430.31 42.9616 6422.09 44.9056C6420.15 45.3649 6417 44.9056 6417 44.9056L6416 53H6420.08V49.3833L6446.59 50.3306V53H6450V46.5417L6444.65 44.9056L6438.15 22H6427.85Z" fill="#82A985" stroke="black" stroke-width="0.5"/>
<path d="M6276 22L6278.67 50.8275L6301 53L6299.17 46.0647L6285.42 47.2345V40.5499L6290.83 39.4636V35.8706L6284.17 37.7089L6283.25 31.2749H6298.17L6301 24.1725L6276 22Z" fill="#82A985" stroke="black" stroke-width="0.5"/>
<path d="M6308 52V24.21L6316.43 21.7234V29.912L6330.47 19L6336.55 24.21L6318.3 35.1311L6341 42.5727V52L6316.43 44.8043V52H6308Z" fill="#82A985" stroke="black" stroke-width="0.5"/>
<path d="M6383 52.3111L6383.68 23.3778L6392.62 24.6571L6394.28 37.254H6398.75L6400.21 24.6571L6408.96 22L6411 53L6398.75 52.3111L6400.21 40.9937H6394.28L6391.36 52.3111H6383Z" fill="#82A985" stroke="black" stroke-width="0.5"/>
<path d="M6354.33 22.0827L6350.82 29.3258C6350.82 29.3258 6349.62 31.3302 6349.23 32.7943C6348.34 36.1365 6350.29 41.6696 6350.29 41.6696L6352.05 49.4227L6358.2 52.0751C6358.2 52.0751 6364.21 54.1562 6367.26 52.0751C6369.3 50.6833 6371.13 46.6683 6371.13 46.6683L6373.33 39.8333L6375 31.162C6375 31.162 6371.17 24.1569 6367.26 22.0827C6362.67 19.6466 6354.33 22.0827 6354.33 22.0827Z" fill="#82A985" stroke="black" stroke-width="0.5"/>
<path d="M6263.81 21L6269.04 29.072L6263.81 32.406L6259.93 29.7739H6254.88L6252.98 39.1619L6261.37 43.8998L6267.96 39.1619L6274 42.9347L6266.69 51.9718C6266.69 51.9718 6249.77 52.8003 6245.31 45.4791C6241.18 38.6942 6248.11 25.4747 6248.11 25.4747L6263.81 21Z" fill="#82A985" stroke="black" stroke-width="0.5"/>
<path d="M6592.85 23C6592.85 23 6595.31 43.2854 6587.09 45.1667C6585.15 45.6112 6582 45.1667 6582 45.1667L6581 53H6585.08V49.5L6611.59 50.4167V53H6615V46.75L6609.65 45.1667L6603.15 23H6592.85Z" fill="#82A985" stroke="black" stroke-width="0.5"/>
<path d="M6514 22L6516.67 50.8275L6539 53L6537.17 46.0647L6523.42 47.2345V40.5499L6528.83 39.4636V35.8706L6522.17 37.7089L6521.25 31.2749H6536.17L6539 24.1725L6514 22Z" fill="#82A985" stroke="black" stroke-width="0.5"/>
<path d="M6547 53.2889L6547.7 23.4222L6556.97 24.7429L6558.68 37.746H6563.31L6564.82 24.7429L6573.89 22L6576 54L6563.31 53.2889L6564.82 41.6063H6558.68L6555.66 53.2889H6547Z" fill="#82A985" stroke="black" stroke-width="0.5"/>
<path d="M6482.33 23.3881H6471.68L6483.25 40.199L6469 53H6478.5L6489.3 40.199L6491.45 53L6504.01 51.1493L6495.35 36.9602L6506 22H6499.57L6489.3 31.3308L6482.33 23.3881Z" fill="#82A985" stroke="black" stroke-width="0.5"/>
<path d="M5979 52L5980.75 22.6822L5992.63 21L6003 25.0853L6000.44 31.9341L5996.36 34.6977L5990.65 37.1008H6003V42.0271V52H5979Z" fill="#82A985" stroke="black" stroke-width="0.5"/>
<path d="M6116 51.8289V25.2378L6122.16 22L6123.38 38.8778L6137.32 39.4289L6137.92 44.1822V50.52L6129.6 53L6116 51.8289Z" fill="#82A985"/>
<path d="M6142.86 51.8289L6141.98 22.6889H6146.45L6152 51.8289H6142.86Z" fill="#82A985"/>
<path d="M6116 51.8289V25.2378L6122.16 22L6123.38 38.8778L6137.32 39.4289L6137.92 44.1822V50.52L6129.6 53L6116 51.8289Z" stroke="black" stroke-width="0.5"/>
<path d="M6142.86 51.8289L6141.98 22.6889H6146.45L6152 51.8289H6142.86Z" stroke="black" stroke-width="0.5"/>
<path d="M6010 22L6012.67 50.8275L6035 53L6033.17 46.0647L6019.42 47.2345V40.5499L6024.83 39.4636V35.8706L6018.17 37.7089L6017.25 31.2749H6032.17L6035 24.1725L6010 22Z" fill="#82A985" stroke="black" stroke-width="0.5"/>
<path d="M5930.38 24.2259L5923.85 55.0004L5916.18 50.9239L5918.34 36.659L5907.83 29.3087L5910.71 23.8982L5920.53 32.5365L5924.03 20.8504L5930.38 24.2259Z" fill="#82A985" stroke="black" stroke-width="0.5"/>
<path d="M5936 52V24.21L5944.43 21.7234V29.912L5958.47 19L5964.55 24.21L5946.3 35.1311L5969 42.5727V52L5944.43 44.8043V52H5936Z" fill="#82A985" stroke="black" stroke-width="0.5"/>
<path d="M6183.24 22.9814L6196.97 51.9531L6197.65 53.3809H6184.56L6184.34 52.6924L6181.81 44.9561L6169.94 53.2021L6169.68 53.3809H6161.04L6160.96 52.4658L6158.69 25.7676L6158.6 24.6836H6166.12L6166.3 25.4482L6170.05 40.9902L6177.15 37.4717L6175.87 23.501L6175.77 22.4092H6182.97L6183.24 22.9814ZM6176.99 20.1416L6174.21 22.415L6173.94 22.6416H6168.74L6168.46 22.3955L6165.85 20.1211L6163.83 18.3672H6179.16L6176.99 20.1416Z" fill="#82A985"/>
<path d="M6183.24 22.9814L6183.47 22.8744L6183.47 22.8743L6183.24 22.9814ZM6196.97 51.9531L6196.75 52.0602L6196.75 52.0602L6196.97 51.9531ZM6197.65 53.3809V53.6309H6198.04L6197.87 53.2738L6197.65 53.3809ZM6184.56 53.3809L6184.32 53.4587L6184.38 53.6309H6184.56V53.3809ZM6184.34 52.6924L6184.1 52.7701L6184.1 52.7702L6184.34 52.6924ZM6181.81 44.9561L6182.04 44.8783L6181.94 44.5591L6181.66 44.7508L6181.81 44.9561ZM6169.94 53.2021L6169.8 52.9969L6169.8 52.9969L6169.94 53.2021ZM6169.68 53.3809V53.6309H6169.76L6169.83 53.5861L6169.68 53.3809ZM6161.04 53.3809L6160.79 53.4021L6160.81 53.6309H6161.04V53.3809ZM6160.96 52.4658L6160.71 52.487L6160.71 52.4871L6160.96 52.4658ZM6158.69 25.7676L6158.94 25.7464L6158.94 25.7463L6158.69 25.7676ZM6158.6 24.6836V24.4336H6158.32L6158.35 24.7049L6158.6 24.6836ZM6166.12 24.6836L6166.36 24.6249L6166.31 24.4336H6166.12V24.6836ZM6166.3 25.4482L6166.54 25.3896L6166.54 25.3896L6166.3 25.4482ZM6170.05 40.9902L6169.8 41.0488L6169.88 41.3532L6170.16 41.2143L6170.05 40.9902ZM6177.15 37.4717L6177.27 37.6957L6177.42 37.6196L6177.4 37.4488L6177.15 37.4717ZM6175.87 23.501L6176.12 23.4781L6176.12 23.478L6175.87 23.501ZM6175.77 22.4092V22.1592H6175.5L6175.52 22.4321L6175.77 22.4092ZM6182.97 22.4092L6183.2 22.302L6183.13 22.1592H6182.97V22.4092ZM6176.99 20.1416L6177.15 20.3351L6177.15 20.3351L6176.99 20.1416ZM6174.21 22.415L6174.06 22.2215L6174.06 22.2217L6174.21 22.415ZM6173.94 22.6416V22.8916H6174.03L6174.1 22.8349L6173.94 22.6416ZM6168.74 22.6416L6168.58 22.83L6168.65 22.8916H6168.74V22.6416ZM6168.46 22.3955L6168.62 22.2071L6168.62 22.207L6168.46 22.3955ZM6165.85 20.1211L6165.68 20.3096L6165.68 20.3096L6165.85 20.1211ZM6163.83 18.3672V18.1172H6163.17L6163.67 18.5557L6163.83 18.3672ZM6179.16 18.3672L6179.32 18.5606L6179.86 18.1172H6179.16V18.3672ZM6183.24 22.9814L6183.02 23.0885L6196.75 52.0602L6196.97 51.9531L6197.2 51.8461L6183.47 22.8744L6183.24 22.9814ZM6196.97 51.9531L6196.75 52.0602L6197.42 53.4879L6197.65 53.3809L6197.87 53.2738L6197.2 51.846L6196.97 51.9531ZM6197.65 53.3809V53.1309H6184.56V53.3809V53.6309H6197.65V53.3809ZM6184.56 53.3809L6184.8 53.303L6184.57 52.6145L6184.34 52.6924L6184.1 52.7702L6184.32 53.4587L6184.56 53.3809ZM6184.34 52.6924L6184.57 52.6147L6182.04 44.8783L6181.81 44.9561L6181.57 45.0338L6184.1 52.7701L6184.34 52.6924ZM6181.81 44.9561L6181.66 44.7508L6169.8 52.9969L6169.94 53.2021L6170.08 53.4074L6181.95 45.1614L6181.81 44.9561ZM6169.94 53.2021L6169.8 52.9969L6169.54 53.1756L6169.68 53.3809L6169.83 53.5861L6170.08 53.4074L6169.94 53.2021ZM6169.68 53.3809V53.1309H6161.04V53.3809V53.6309H6169.68V53.3809ZM6161.04 53.3809L6161.29 53.3596L6161.21 52.4446L6160.96 52.4658L6160.71 52.4871L6160.79 53.4021L6161.04 53.3809ZM6160.96 52.4658L6161.21 52.4446L6158.94 25.7464L6158.69 25.7676L6158.44 25.7888L6160.71 52.487L6160.96 52.4658ZM6158.69 25.7676L6158.94 25.7463L6158.84 24.6623L6158.6 24.6836L6158.35 24.7049L6158.44 25.7889L6158.69 25.7676ZM6158.6 24.6836V24.9336H6166.12V24.6836V24.4336H6158.6V24.6836ZM6166.12 24.6836L6165.87 24.7423L6166.06 25.5069L6166.3 25.4482L6166.54 25.3896L6166.36 24.6249L6166.12 24.6836ZM6166.3 25.4482L6166.06 25.5069L6169.8 41.0488L6170.05 40.9902L6170.29 40.9316L6166.54 25.3896L6166.3 25.4482ZM6170.05 40.9902L6170.16 41.2143L6177.27 37.6957L6177.15 37.4717L6177.04 37.2476L6169.94 40.7662L6170.05 40.9902ZM6177.15 37.4717L6177.4 37.4488L6176.12 23.4781L6175.87 23.501L6175.62 23.5239L6176.91 37.4946L6177.15 37.4717ZM6175.87 23.501L6176.12 23.478L6176.02 22.3862L6175.77 22.4092L6175.52 22.4321L6175.62 23.5239L6175.87 23.501ZM6175.77 22.4092V22.6592H6182.97V22.4092V22.1592H6175.77V22.4092ZM6182.97 22.4092L6182.75 22.5163L6183.02 23.0886L6183.24 22.9814L6183.47 22.8743L6183.2 22.302L6182.97 22.4092ZM6176.99 20.1416L6176.83 19.9481L6174.06 22.2215L6174.21 22.415L6174.37 22.6085L6177.15 20.3351L6176.99 20.1416ZM6174.21 22.415L6174.06 22.2217L6173.78 22.4483L6173.94 22.6416L6174.1 22.8349L6174.37 22.6084L6174.21 22.415ZM6173.94 22.6416V22.3916H6168.74V22.6416V22.8916H6173.94V22.6416ZM6168.74 22.6416L6168.91 22.4532L6168.62 22.2071L6168.46 22.3955L6168.3 22.5839L6168.58 22.83L6168.74 22.6416ZM6168.46 22.3955L6168.62 22.207L6166.01 19.9326L6165.85 20.1211L6165.68 20.3096L6168.3 22.584L6168.46 22.3955ZM6165.85 20.1211L6166.01 19.9326L6164 18.1787L6163.83 18.3672L6163.67 18.5557L6165.68 20.3096L6165.85 20.1211ZM6163.83 18.3672V18.6172H6179.16V18.3672V18.1172H6163.83V18.3672ZM6179.16 18.3672L6179 18.1737L6176.83 19.9481L6176.99 20.1416L6177.15 20.3351L6179.32 18.5606L6179.16 18.3672Z" fill="black"/>
<path d="M6043 52.3111L6043.7 23.3778L6052.97 24.6571L6054.68 37.254H6059.31L6060.82 24.6571L6069.89 22L6072 53L6059.31 52.3111L6060.82 40.9937H6054.68L6051.66 52.3111H6043Z" fill="#82A985" stroke="black" stroke-width="0.5"/>
<path d="M6079 52.3111L6079.7 23.3778L6088.97 24.6571L6090.68 37.254H6095.31L6096.82 24.6571L6105.89 22L6108 53L6095.31 52.3111L6096.82 40.9937H6090.68L6087.66 52.3111H6079Z" fill="#82A985" stroke="black" stroke-width="0.5"/>
<path d="M5875 22L5877.04 50.4672L5894.7 52L5905 49.4818L5902.51 36.6715L5898.21 35.6861C5898.21 35.6861 5889.26 41.0995 5884.74 38.7518C5880.21 36.4042 5879.64 27.0365 5879.64 27.0365L5902.51 30.5401V23.7518L5875 22Z" fill="#82A985" stroke="black" stroke-width="0.5"/>
<path d="M6464.72 33H6450V39.1277L6467 41L6464.72 33Z" fill="#82A985" stroke="black" stroke-width="0.5"/>
</svg>
