<svg width="884" height="102" viewBox="0 0 884 102" fill="none" xmlns="http://www.w3.org/2000/svg">
<path d="M213 8H0V51.726H94.7799C94.7799 51.726 98.5692 65.3969 94.7799 72.5479C90.9906 79.6989 75.4163 84 75.4163 84H153.89C153.89 84 134.17 79.7364 130.45 72.5479C126.729 65.3594 130.45 51.726 130.45 51.726H213V8Z" fill="#B44B47"/>
<path d="M448.223 75.733L249.286 79.5581C249.286 79.5581 281.307 37.3432 310.73 23.7241C344.398 8.14006 372.931 -2.18089 405.397 15.7732C430.578 29.6987 448.223 75.733 448.223 75.733Z" fill="#82A985"/>
<path d="M529.059 102H482L497.366 71.6327C497.366 71.6327 507.931 45.0617 519.455 28.929C530.98 12.7964 527.284 7.66106 554.03 2.35725C580.775 -2.94656 665.436 2.35725 665.436 2.35725L676 71.6327L610.693 89.6633L593.406 60.2449L544.426 64.9898L529.059 102Z" fill="#F5DE91"/>
<path d="M755 101V0H884V101H755Z" fill="#82A985"/>
</svg>
